<?xml version="1.0" encoding="utf-8"?>
<!-- Generator: Adobe Illustrator 20.1.0, SVG Export Plug-In . SVG Version: 6.00 Build 0)  -->
<svg version="1.1" id="Layer_1" xmlns="http://www.w3.org/2000/svg" xmlns:xlink="http://www.w3.org/1999/xlink" x="0px" y="0px"
	 viewBox="0 0 700 500" style="enable-background:new 0 0 700 500;" xml:space="preserve">
<style type="text/css">
	.st0{opacity:0.75;}
	.st1{fill:#C7B299;}
	.st2{fill:#FF00FF;}
	.st3{fill:#00FFFF;}
	.st4{fill:#00A99D;}
	.st5{fill:#29ABE2;}
	.st6{fill:#8CC63F;}
	.st7{fill:#662D91;}
	.st8{fill:#3FA9F5;}
	.st9{fill:#FF7BAC;}
	.st10{fill:#BDCCD4;}
</style>
<title>canada</title>
<g id="NB">
	<g class="st0">
		<polygon class="st1" points="530.4,427.6 526.5,419.9 531.1,412.6 539.8,413.1 543.7,420.8 539,428 		"/>
	</g>
	<g class="st0">
		<polygon class="st1" points="530.4,411.7 526.5,404 531.1,396.8 539.8,397.2 543.7,404.9 539,412.1 		"/>
	</g>
	<g class="st0">
		<polygon class="st1" points="516.7,435.5 512.7,427.8 517.4,420.6 526,421 530,428.7 525.3,435.9 		"/>
	</g>
	<g class="st0">
		<polygon class="st1" points="516.7,419.6 512.7,412 517.4,404.7 526,405.1 530,412.8 525.3,420.1 		"/>
	</g>
	<g class="st0">
		<polygon class="st1" points="516.7,403.8 512.7,396.1 517.4,388.9 526,389.3 530,397 525.3,404.2 		"/>
	</g>
	<g class="st0">
		<polygon class="st1" points="503,427.6 499,419.9 503.7,412.6 512.3,413.1 516.2,420.8 511.6,428 		"/>
	</g>
	<g class="st0">
		<polygon class="st1" points="503,411.7 499,404 503.7,396.8 512.3,397.2 516.2,404.9 511.6,412.1 		"/>
	</g>
	<g class="st0">
		<polygon class="st1" points="489.2,451.4 485.3,443.7 490,436.4 498.6,436.9 502.5,444.5 497.9,451.8 		"/>
	</g>
	<g class="st0">
		<polygon class="st1" points="489.2,435.5 485.3,427.8 490,420.6 498.6,421 502.5,428.7 497.9,435.9 		"/>
	</g>
	<g class="st0">
		<polygon class="st1" points="544.1,419.6 540.2,412 544.9,404.7 553.5,405.1 557.4,412.8 552.7,420.1 		"/>
	</g>
</g>
<g id="NS">
	<g class="st0">
		<polygon class="st1" points="557.8,427.6 553.9,419.9 558.6,412.6 567.2,413.1 571.1,420.8 566.5,428 		"/>
	</g>
	<g class="st0">
		<polygon class="st1" points="544.1,451.4 540.2,443.7 544.9,436.4 553.5,436.9 557.4,444.5 552.7,451.8 		"/>
	</g>
	<g class="st0">
		<polygon class="st1" points="544.1,435.5 540.2,427.8 544.9,420.6 553.5,421 557.4,428.7 552.7,435.9 		"/>
	</g>
	<g class="st0">
		<polygon class="st1" points="530.4,459.3 526.5,451.6 531.1,444.4 539.8,444.8 543.7,452.5 539,459.7 		"/>
	</g>
	<g class="st0">
		<polygon class="st1" points="530.4,443.4 526.5,435.8 531.1,428.5 539.8,428.9 543.7,436.6 539,443.9 		"/>
	</g>
	<g class="st0">
		<polygon class="st1" points="557.8,443.4 553.9,435.8 558.6,428.5 567.2,428.9 571.1,436.6 566.5,443.9 		"/>
	</g>
	<g class="st0">
		<polygon class="st1" points="557.8,411.7 553.9,404 558.6,396.8 567.2,397.2 571.1,404.9 566.5,412.1 		"/>
	</g>
	<g class="st0">
		<polygon class="st1" points="516.7,451.4 512.7,443.7 517.4,436.4 526,436.9 530,444.5 525.3,451.8 		"/>
	</g>
</g>
<g id="NL">
	<g class="st0">
		<polygon class="st2" points="571.6,372 567.6,364.4 572.3,357.1 580.9,357.6 584.8,365.2 580.2,372.5 		"/>
	</g>
	<g class="st0">
		<polygon class="st2" points="557.8,348.3 553.9,340.6 558.6,333.3 567.2,333.8 571.1,341.4 566.5,348.7 		"/>
	</g>
	<g class="st0">
		<polygon class="st2" points="544.1,356.2 540.2,348.5 544.9,341.3 553.5,341.7 557.4,349.4 552.7,356.6 		"/>
	</g>
	<g class="st0">
		<polygon class="st2" points="544.1,340.3 540.2,332.6 544.9,325.4 553.5,325.8 557.4,333.5 552.7,340.8 		"/>
	</g>
	<g class="st0">
		<polygon class="st2" points="530.4,364.1 526.5,356.5 531.1,349.2 539.8,349.6 543.7,357.3 539,364.5 		"/>
	</g>
	<g class="st0">
		<polygon class="st2" points="530.4,348.3 526.5,340.6 531.1,333.3 539.8,333.8 543.7,341.4 539,348.7 		"/>
	</g>
	<g class="st0">
		<polygon class="st2" points="530.4,332.4 526.5,324.7 531.1,317.5 539.8,317.9 543.7,325.6 539,332.8 		"/>
	</g>
	<g class="st0">
		<polygon class="st2" points="516.7,372 512.7,364.4 517.4,357.1 526,357.6 530,365.2 525.3,372.5 		"/>
	</g>
	<g class="st0">
		<polygon class="st2" points="516.7,356.2 512.7,348.5 517.4,341.3 526,341.7 530,349.4 525.3,356.6 		"/>
	</g>
	<g class="st0">
		<polygon class="st2" points="516.7,340.3 512.7,332.6 517.4,325.4 526,325.8 530,333.5 525.3,340.8 		"/>
	</g>
	<g class="st0">
		<polygon class="st2" points="516.7,324.5 512.7,316.8 517.4,309.5 526,310 530,317.6 525.3,324.9 		"/>
	</g>
	<g class="st0">
		<polygon class="st2" points="503,364.1 499,356.5 503.7,349.2 512.3,349.6 516.2,357.3 511.6,364.5 		"/>
	</g>
	<g class="st0">
		<polygon class="st2" points="503,348.3 499,340.6 503.7,333.3 512.3,333.8 516.2,341.4 511.6,348.7 		"/>
	</g>
	<g class="st0">
		<polygon class="st2" points="503,332.4 499,324.7 503.7,317.5 512.3,317.9 516.2,325.6 511.6,332.8 		"/>
	</g>
	<g class="st0">
		<polygon class="st2" points="503,316.5 499,308.9 503.7,301.6 512.3,302 516.2,309.7 511.6,317 		"/>
	</g>
	<g class="st0">
		<polygon class="st2" points="503,300.7 499,293 503.7,285.8 512.3,286.2 516.2,293.9 511.6,301.1 		"/>
	</g>
	<g class="st0">
		<polygon class="st2" points="489.2,292.8 485.3,285.1 490,277.8 498.6,278.2 502.5,285.9 497.9,293.2 		"/>
	</g>
	<g class="st0">
		<polygon class="st2" points="612.7,395.8 608.8,388.2 613.5,380.9 622.1,381.4 626,389 621.3,396.3 		"/>
	</g>
	<g class="st0">
		<polygon class="st2" points="599,387.9 595.1,380.2 599.7,373 608.3,373.4 612.3,381.1 607.6,388.3 		"/>
	</g>
	<g class="st0">
		<polygon class="st2" points="585.3,395.8 581.3,388.2 586,380.9 594.6,381.4 598.6,389 593.9,396.3 		"/>
	</g>
	<g class="st0">
		<polygon class="st2" points="585.3,380 581.3,372.3 586,365.1 594.6,365.5 598.6,373.2 593.9,380.4 		"/>
	</g>
	<g class="st0">
		<polygon class="st2" points="571.6,403.8 567.6,396.1 572.3,388.9 580.9,389.3 584.8,397 580.2,404.2 		"/>
	</g>
	<g class="st0">
		<polygon class="st2" points="571.6,387.9 567.6,380.2 572.3,373 580.9,373.4 584.8,381.1 580.2,388.3 		"/>
	</g>
	<g class="st0">
		<polygon class="st2" points="557.8,395.8 553.9,388.2 558.6,380.9 567.2,381.4 571.1,389 566.5,396.3 		"/>
	</g>
	<g class="st0">
		<polygon class="st2" points="557.8,380 553.9,372.3 558.6,365.1 567.2,365.5 571.1,373.2 566.5,380.4 		"/>
	</g>
	<g class="st0">
		<polygon class="st2" points="544.1,403.8 540.2,396.1 544.9,388.9 553.5,389.3 557.4,397 552.7,404.2 		"/>
	</g>
	<g class="st0">
		<polygon class="st2" points="571.6,356.2 567.6,348.5 572.3,341.3 580.9,341.7 584.8,349.4 580.2,356.6 		"/>
	</g>
	<g class="st0">
		<polygon class="st2" points="599,372 595.1,364.4 599.7,357.1 608.3,357.6 612.3,365.2 607.6,372.5 		"/>
	</g>
</g>
<g id="QC" class="st0">
	<g class="st0">
		<g class="st0">
			<polygon class="st3" points="516.7,387.9 512.7,380.2 517.4,373 526,373.4 530,381.1 525.3,388.3 			"/>
		</g>
		<g class="st0">
			<polygon class="st3" points="503,395.8 499,388.2 503.7,380.9 512.3,381.4 516.2,389 511.6,396.3 			"/>
		</g>
		<g class="st0">
			<polygon class="st3" points="503,380 499,372.3 503.7,365.1 512.3,365.5 516.2,373.2 511.6,380.4 			"/>
		</g>
		<g class="st0">
			<polygon class="st3" points="489.2,419.6 485.3,412 490,404.7 498.6,405.1 502.5,412.8 497.9,420.1 			"/>
		</g>
		<g class="st0">
			<polygon class="st3" points="489.2,403.8 485.3,396.1 490,388.9 498.6,389.3 502.5,397 497.9,404.2 			"/>
		</g>
		<g class="st0">
			<polygon class="st3" points="489.2,387.9 485.3,380.2 490,373 498.6,373.4 502.5,381.1 497.9,388.3 			"/>
		</g>
		<g class="st0">
			<polygon class="st3" points="489.2,372 485.3,364.4 490,357.1 498.6,357.6 502.5,365.2 497.9,372.5 			"/>
		</g>
		<g class="st0">
			<polygon class="st3" points="489.2,356.2 485.3,348.5 490,341.3 498.6,341.7 502.5,349.4 497.9,356.6 			"/>
		</g>
		<g class="st0">
			<polygon class="st3" points="489.2,340.3 485.3,332.6 490,325.4 498.6,325.8 502.5,333.5 497.9,340.8 			"/>
		</g>
		<g class="st0">
			<polygon class="st3" points="489.2,324.5 485.3,316.8 490,309.5 498.6,310 502.5,317.6 497.9,324.9 			"/>
		</g>
		<g class="st0">
			<polygon class="st3" points="489.2,308.6 485.3,300.9 490,293.7 498.6,294.1 502.5,301.8 497.9,309 			"/>
		</g>
		<g class="st0">
			<polygon class="st3" points="475.5,443.4 471.6,435.8 476.3,428.5 484.9,428.9 488.8,436.6 484.1,443.9 			"/>
		</g>
		<g class="st0">
			<polygon class="st3" points="475.5,427.6 471.6,419.9 476.3,412.6 484.9,413.1 488.8,420.8 484.1,428 			"/>
		</g>
		<g class="st0">
			<polygon class="st3" points="475.5,411.7 471.6,404 476.3,396.8 484.9,397.2 488.8,404.9 484.1,412.1 			"/>
		</g>
		<g class="st0">
			<polygon class="st3" points="475.5,395.8 471.6,388.2 476.3,380.9 484.9,381.4 488.8,389 484.1,396.3 			"/>
		</g>
		<g class="st0">
			<polygon class="st3" points="475.5,380 471.6,372.3 476.3,365.1 484.9,365.5 488.8,373.2 484.1,380.4 			"/>
		</g>
		<g class="st0">
			<polygon class="st3" points="475.5,364.1 471.6,356.5 476.3,349.2 484.9,349.6 488.8,357.3 484.1,364.5 			"/>
		</g>
		<g class="st0">
			<polygon class="st3" points="475.5,348.3 471.6,340.6 476.3,333.3 484.9,333.8 488.8,341.4 484.1,348.7 			"/>
		</g>
		<g class="st0">
			<polygon class="st3" points="475.5,332.4 471.6,324.7 476.3,317.5 484.9,317.9 488.8,325.6 484.1,332.8 			"/>
		</g>
		<g class="st0">
			<polygon class="st3" points="475.5,316.5 471.6,308.9 476.3,301.6 484.9,302 488.8,309.7 484.1,317 			"/>
		</g>
		<g class="st0">
			<polygon class="st3" points="461.8,451.4 457.9,443.7 462.5,436.4 471.1,436.9 475.1,444.5 470.4,451.8 			"/>
		</g>
		<g class="st0">
			<polygon class="st3" points="461.8,435.5 457.9,427.8 462.5,420.6 471.1,421 475.1,428.7 470.4,435.9 			"/>
		</g>
		<g class="st0">
			<polygon class="st3" points="461.8,419.6 457.9,412 462.5,404.7 471.1,405.1 475.1,412.8 470.4,420.1 			"/>
		</g>
		<g class="st0">
			<polygon class="st3" points="461.8,403.8 457.9,396.1 462.5,388.9 471.1,389.3 475.1,397 470.4,404.2 			"/>
		</g>
		<g class="st0">
			<polygon class="st3" points="461.8,387.9 457.9,380.2 462.5,373 471.1,373.4 475.1,381.1 470.4,388.3 			"/>
		</g>
		<g class="st0">
			<polygon class="st3" points="461.8,372 457.9,364.4 462.5,357.1 471.1,357.6 475.1,365.2 470.4,372.5 			"/>
		</g>
		<g class="st0">
			<polygon class="st3" points="461.8,356.2 457.9,348.5 462.5,341.3 471.1,341.7 475.1,349.4 470.4,356.6 			"/>
		</g>
		<g class="st0">
			<polygon class="st3" points="461.8,340.3 457.9,332.6 462.5,325.4 471.1,325.8 475.1,333.5 470.4,340.8 			"/>
		</g>
		<g class="st0">
			<polygon class="st3" points="461.8,324.5 457.9,316.8 462.5,309.5 471.1,310 475.1,317.6 470.4,324.9 			"/>
		</g>
		<g class="st0">
			<polygon class="st3" points="461.8,308.6 457.9,300.9 462.5,293.7 471.1,294.1 475.1,301.8 470.4,309 			"/>
		</g>
		<g class="st0">
			<polygon class="st3" points="461.8,292.8 457.9,285.1 462.5,277.8 471.1,278.2 475.1,285.9 470.4,293.2 			"/>
		</g>
		<g class="st0">
			<polygon class="st3" points="448.1,443.4 444.1,435.8 448.8,428.5 457.4,428.9 461.4,436.6 456.7,443.9 			"/>
		</g>
		<g class="st0">
			<polygon class="st3" points="448.1,427.6 444.1,419.9 448.8,412.6 457.4,413.1 461.4,420.8 456.7,428 			"/>
		</g>
		<g class="st0">
			<polygon class="st3" points="448.1,411.7 444.1,404 448.8,396.8 457.4,397.2 461.4,404.9 456.7,412.1 			"/>
		</g>
		<g class="st0">
			<polygon class="st3" points="448.1,395.8 444.1,388.2 448.8,380.9 457.4,381.4 461.4,389 456.7,396.3 			"/>
		</g>
		<g class="st0">
			<polygon class="st3" points="448.1,380 444.1,372.3 448.8,365.1 457.4,365.5 461.4,373.2 456.7,380.4 			"/>
		</g>
		<g class="st0">
			<polygon class="st3" points="448.1,364.1 444.1,356.5 448.8,349.2 457.4,349.6 461.4,357.3 456.7,364.5 			"/>
		</g>
		<g class="st0">
			<polygon class="st3" points="448.1,348.3 444.1,340.6 448.8,333.3 457.4,333.8 461.4,341.4 456.7,348.7 			"/>
		</g>
		<g class="st0">
			<polygon class="st3" points="448.1,332.4 444.1,324.7 448.8,317.5 457.4,317.9 461.4,325.6 456.7,332.8 			"/>
		</g>
		<g class="st0">
			<polygon class="st3" points="448.1,316.5 444.1,308.9 448.8,301.6 457.4,302 461.4,309.7 456.7,317 			"/>
		</g>
		<g class="st0">
			<polygon class="st3" points="448.1,300.7 444.1,293 448.8,285.8 457.4,286.2 461.4,293.9 456.7,301.1 			"/>
		</g>
		<g class="st0">
			<polygon class="st3" points="448.1,284.8 444.1,277.1 448.8,269.9 457.4,270.3 461.4,278 456.7,285.2 			"/>
		</g>
		<g class="st0">
			<polygon class="st3" points="434.4,435.5 430.4,427.8 435.1,420.6 443.7,421 447.6,428.7 443,435.9 			"/>
		</g>
		<g class="st0">
			<polygon class="st3" points="434.4,419.6 430.4,412 435.1,404.7 443.7,405.1 447.6,412.8 443,420.1 			"/>
		</g>
		<g class="st0">
			<polygon class="st3" points="434.4,403.8 430.4,396.1 435.1,388.9 443.7,389.3 447.6,397 443,404.2 			"/>
		</g>
		<g class="st0">
			<polygon class="st3" points="434.4,387.9 430.4,380.2 435.1,373 443.7,373.4 447.6,381.1 443,388.3 			"/>
		</g>
		<g class="st0">
			<polygon class="st3" points="434.4,372 430.4,364.4 435.1,357.1 443.7,357.6 447.6,365.2 443,372.5 			"/>
		</g>
		<g class="st0">
			<polygon class="st3" points="434.4,356.2 430.4,348.5 435.1,341.3 443.7,341.7 447.6,349.4 443,356.6 			"/>
		</g>
		<g class="st0">
			<polygon class="st3" points="434.4,340.3 430.4,332.6 435.1,325.4 443.7,325.8 447.6,333.5 443,340.8 			"/>
		</g>
		<g class="st0">
			<polygon class="st3" points="434.4,324.5 430.4,316.8 435.1,309.5 443.7,310 447.6,317.6 443,324.9 			"/>
		</g>
		<g class="st0">
			<polygon class="st3" points="434.4,308.6 430.4,300.9 435.1,293.7 443.7,294.1 447.6,301.8 443,309 			"/>
		</g>
		<g class="st0">
			<polygon class="st3" points="434.4,292.8 430.4,285.1 435.1,277.8 443.7,278.2 447.6,285.9 443,293.2 			"/>
		</g>
		<g class="st0">
			<polygon class="st3" points="420.6,316.5 416.7,308.9 421.4,301.6 430,302 433.9,309.7 429.2,317 			"/>
		</g>
		<g class="st0">
			<polygon class="st3" points="420.6,300.7 416.7,293 421.4,285.8 430,286.2 433.9,293.9 429.2,301.1 			"/>
		</g>
		<g class="st0">
			<polygon class="st3" points="420.6,284.8 416.7,277.1 421.4,269.9 430,270.3 433.9,278 429.2,285.2 			"/>
		</g>
		<g class="st0">
			<polygon class="st3" points="557.8,364.1 553.9,356.5 558.6,349.2 567.2,349.6 571.1,357.3 566.5,364.5 			"/>
		</g>
		<g class="st0">
			<polygon class="st3" points="544.1,387.9 540.2,380.2 544.9,373 553.5,373.4 557.4,381.1 552.7,388.3 			"/>
		</g>
		<g class="st0">
			<polygon class="st3" points="544.1,372 540.2,364.4 544.9,357.1 553.5,357.6 557.4,365.2 552.7,372.5 			"/>
		</g>
		<g class="st0">
			<polygon class="st3" points="530.4,380 526.5,372.3 531.1,365.1 539.8,365.5 543.7,373.2 539,380.4 			"/>
		</g>
	</g>
	<g class="st0">
		<polygon class="st3" points="420.6,380 416.7,372.3 421.4,365.1 430,365.5 433.9,373.2 429.2,380.4 		"/>
	</g>
	<g class="st0">
		<polygon class="st3" points="420.6,364.1 416.7,356.5 421.4,349.2 430,349.6 433.9,357.3 429.2,364.5 		"/>
	</g>
	<g class="st0">
		<polygon class="st3" points="420.6,348.3 416.7,340.6 421.4,333.3 430,333.8 433.9,341.4 429.2,348.7 		"/>
	</g>
	<g class="st0">
		<polygon class="st3" points="420.6,332.4 416.7,324.7 421.4,317.5 430,317.9 433.9,325.6 429.2,332.8 		"/>
	</g>
	<g class="st0">
		<polygon class="st3" points="434.4,276.9 430.4,269.2 435.1,262 443.7,262.4 447.6,270.1 443,277.3 		"/>
	</g>
	<g class="st0">
		<polygon class="st3" points="475.5,459.3 471.6,451.6 476.3,444.4 484.9,444.8 488.8,452.5 484.1,459.7 		"/>
	</g>
	<g class="st0">
		<polygon class="st3" points="530.4,395.8 526.5,388.2 531.1,380.9 539.8,381.4 543.7,389 539,396.3 		"/>
	</g>
</g>
<g id="ON">
	<g class="st0">
		<polygon class="st4" points="448.1,475.1 444.1,467.5 448.8,460.2 457.4,460.7 461.4,468.3 456.7,475.6 		"/>
	</g>
	<g class="st0">
		<polygon class="st4" points="448.1,459.3 444.1,451.6 448.8,444.4 457.4,444.8 461.4,452.5 456.7,459.7 		"/>
	</g>
	<g class="st0">
		<polygon class="st4" points="434.4,483.1 430.4,475.4 435.1,468.2 443.7,468.6 447.6,476.3 443,483.5 		"/>
	</g>
	<g class="st0">
		<polygon class="st4" points="434.4,467.2 430.4,459.5 435.1,452.3 443.7,452.7 447.6,460.4 443,467.6 		"/>
	</g>
	<g class="st0">
		<polygon class="st4" points="434.4,451.4 430.4,443.7 435.1,436.4 443.7,436.9 447.6,444.5 443,451.8 		"/>
	</g>
	<g class="st0">
		<polygon class="st4" points="420.6,491 416.7,483.3 421.4,476.1 430,476.5 433.9,484.2 429.2,491.4 		"/>
	</g>
	<g class="st0">
		<polygon class="st4" points="420.6,475.1 416.7,467.5 421.4,460.2 430,460.7 433.9,468.3 429.2,475.6 		"/>
	</g>
	<g class="st0">
		<polygon class="st4" points="420.6,459.3 416.7,451.6 421.4,444.4 430,444.8 433.9,452.5 429.2,459.7 		"/>
	</g>
	<g class="st0">
		<polygon class="st4" points="420.6,443.4 416.7,435.8 421.4,428.5 430,428.9 433.9,436.6 429.2,443.9 		"/>
	</g>
	<g class="st0">
		<polygon class="st4" points="420.6,427.6 416.7,419.9 421.4,412.6 430,413.1 433.9,420.8 429.2,428 		"/>
	</g>
	<g class="st0">
		<polygon class="st4" points="420.6,411.7 416.7,404 421.4,396.8 430,397.2 433.9,404.9 429.2,412.1 		"/>
	</g>
	<g class="st0">
		<polygon class="st4" points="420.6,395.8 416.7,388.2 421.4,380.9 430,381.4 433.9,389 429.2,396.3 		"/>
	</g>
	<g class="st0">
		<polygon class="st4" points="406.9,451.4 403,443.7 407.7,436.4 416.3,436.9 420.2,444.5 415.5,451.8 		"/>
	</g>
	<g class="st0">
		<polygon class="st4" points="406.9,435.5 403,427.8 407.7,420.6 416.3,421 420.2,428.7 415.5,435.9 		"/>
	</g>
	<g class="st0">
		<polygon class="st4" points="406.9,419.6 403,412 407.7,404.7 416.3,405.1 420.2,412.8 415.5,420.1 		"/>
	</g>
	<g class="st0">
		<polygon class="st4" points="406.9,403.8 403,396.1 407.7,388.9 416.3,389.3 420.2,397 415.5,404.2 		"/>
	</g>
	<g class="st0">
		<polygon class="st4" points="406.9,387.9 403,380.2 407.7,373 416.3,373.4 420.2,381.1 415.5,388.3 		"/>
	</g>
	<g class="st0">
		<polygon class="st4" points="393.2,443.4 389.3,435.8 393.9,428.5 402.5,428.9 406.5,436.6 401.8,443.9 		"/>
	</g>
	<g class="st0">
		<polygon class="st4" points="393.2,427.6 389.3,419.9 393.9,412.6 402.5,413.1 406.5,420.8 401.8,428 		"/>
	</g>
	<g class="st0">
		<polygon class="st4" points="393.2,411.7 389.3,404 393.9,396.8 402.5,397.2 406.5,404.9 401.8,412.1 		"/>
	</g>
	<g class="st0">
		<polygon class="st4" points="393.2,395.8 389.3,388.2 393.9,380.9 402.5,381.4 406.5,389 401.8,396.3 		"/>
	</g>
	<g class="st0">
		<polygon class="st4" points="393.2,380 389.3,372.3 393.9,365.1 402.5,365.5 406.5,373.2 401.8,380.4 		"/>
	</g>
	<g class="st0">
		<polygon class="st4" points="379.5,435.5 375.5,427.8 380.2,420.6 388.8,421 392.8,428.7 388.1,435.9 		"/>
	</g>
	<g class="st0">
		<polygon class="st4" points="379.5,419.6 375.5,412 380.2,404.7 388.8,405.1 392.8,412.8 388.1,420.1 		"/>
	</g>
	<g class="st0">
		<polygon class="st4" points="379.5,403.8 375.5,396.1 380.2,388.9 388.8,389.3 392.8,397 388.1,404.2 		"/>
	</g>
	<g class="st0">
		<polygon class="st4" points="379.5,387.9 375.5,380.2 380.2,373 388.8,373.4 392.8,381.1 388.1,388.3 		"/>
	</g>
	<g class="st0">
		<polygon class="st4" points="379.5,372 375.5,364.4 380.2,357.1 388.8,357.6 392.8,365.2 388.1,372.5 		"/>
	</g>
	<g class="st0">
		<polygon class="st4" points="365.8,427.6 361.8,419.9 366.5,412.6 375.1,413.1 379,420.8 374.4,428 		"/>
	</g>
	<g class="st0">
		<polygon class="st4" points="365.8,411.7 361.8,404 366.5,396.8 375.1,397.2 379,404.9 374.4,412.1 		"/>
	</g>
	<g class="st0">
		<polygon class="st4" points="365.8,395.8 361.8,388.2 366.5,380.9 375.1,381.4 379,389 374.4,396.3 		"/>
	</g>
	<g class="st0">
		<polygon class="st4" points="365.8,380 361.8,372.3 366.5,365.1 375.1,365.5 379,373.2 374.4,380.4 		"/>
	</g>
	<g class="st0">
		<polygon class="st4" points="365.8,364.1 361.8,356.5 366.5,349.2 375.1,349.6 379,357.3 374.4,364.5 		"/>
	</g>
	<g class="st0">
		<polygon class="st4" points="352,435.5 348.1,427.8 352.8,420.6 361.4,421 365.3,428.7 360.6,435.9 		"/>
	</g>
	<g class="st0">
		<polygon class="st4" points="352,419.6 348.1,412 352.8,404.7 361.4,405.1 365.3,412.8 360.6,420.1 		"/>
	</g>
	<g class="st0">
		<polygon class="st4" points="352,403.8 348.1,396.1 352.8,388.9 361.4,389.3 365.3,397 360.6,404.2 		"/>
	</g>
	<g class="st0">
		<polygon class="st4" points="352,387.9 348.1,380.2 352.8,373 361.4,373.4 365.3,381.1 360.6,388.3 		"/>
	</g>
	<g class="st0">
		<polygon class="st4" points="352,372 348.1,364.4 352.8,357.1 361.4,357.6 365.3,365.2 360.6,372.5 		"/>
	</g>
	<g class="st0">
		<polygon class="st4" points="338.3,427.6 334.4,419.9 339.1,412.6 347.7,413.1 351.6,420.8 346.9,428 		"/>
	</g>
	<g class="st0">
		<polygon class="st4" points="338.3,411.7 334.4,404 339.1,396.8 347.7,397.2 351.6,404.9 346.9,412.1 		"/>
	</g>
	<g class="st0">
		<polygon class="st4" points="338.3,395.8 334.4,388.2 339.1,380.9 347.7,381.4 351.6,389 346.9,396.3 		"/>
	</g>
	<g class="st0">
		<polygon class="st4" points="338.3,380 334.4,372.3 339.1,365.1 347.7,365.5 351.6,373.2 346.9,380.4 		"/>
	</g>
	<g class="st0">
		<polygon class="st4" points="324.6,435.5 320.7,427.8 325.3,420.6 334,421 337.9,428.7 333.2,435.9 		"/>
	</g>
	<g class="st0">
		<polygon class="st4" points="324.6,419.6 320.7,412 325.3,404.7 334,405.1 337.9,412.8 333.2,420.1 		"/>
	</g>
	<g class="st0">
		<polygon class="st4" points="324.6,403.8 320.7,396.1 325.3,388.9 334,389.3 337.9,397 333.2,404.2 		"/>
	</g>
	<g class="st0">
		<polygon class="st4" points="393.2,459.3 389.3,451.6 393.9,444.4 402.5,444.8 406.5,452.5 401.8,459.7 		"/>
	</g>
	<g class="st0">
		<polygon class="st4" points="379.5,451.4 375.5,443.7 380.2,436.4 388.8,436.9 392.8,444.5 388.1,451.8 		"/>
	</g>
	<g class="st0">
		<polygon class="st4" points="365.8,443.4 361.8,435.8 366.5,428.5 375.1,428.9 379,436.6 374.4,443.9 		"/>
	</g>
	<g class="st0">
		<polygon class="st4" points="406.9,372 403,364.4 407.7,357.1 416.3,357.6 420.2,365.2 415.5,372.5 		"/>
	</g>
	<g class="st0">
		<polygon class="st4" points="393.2,364.1 389.3,356.5 393.9,349.2 402.5,349.6 406.5,357.3 401.8,364.5 		"/>
	</g>
	<g class="st0">
		<polygon class="st4" points="379.5,356.2 375.5,348.5 380.2,341.3 388.8,341.7 392.8,349.4 388.1,356.6 		"/>
	</g>
	<g class="st0">
		<polygon class="st4" points="365.8,348.3 361.8,340.6 366.5,333.3 375.1,333.8 379,341.4 374.4,348.7 		"/>
	</g>
	<g class="st0">
		<polygon class="st4" points="461.8,467.2 457.9,459.5 462.5,452.3 471.1,452.7 475.1,460.4 470.4,467.6 		"/>
	</g>
	<g class="st0">
		<polygon class="st4" points="406.9,498.9 403,491.3 407.7,484 416.3,484.5 420.2,492.1 415.5,499.4 		"/>
	</g>
	<g class="st0">
		<polygon class="st4" points="338.3,443.4 334.4,435.8 339.1,428.5 347.7,428.9 351.6,436.6 346.9,443.9 		"/>
	</g>
</g>
<g id="MB">
	<g class="st0">
		<polygon class="st5" points="352,356.2 348.1,348.5 352.8,341.3 361.4,341.7 365.3,349.4 360.6,356.6 		"/>
	</g>
	<g class="st0">
		<polygon class="st5" points="338.3,364.1 334.4,356.5 339.1,349.2 347.7,349.6 351.6,357.3 346.9,364.5 		"/>
	</g>
	<g class="st0">
		<polygon class="st5" points="338.3,348.3 334.4,340.6 339.1,333.3 347.7,333.8 351.6,341.4 346.9,348.7 		"/>
	</g>
	<g class="st0">
		<polygon class="st5" points="338.3,332.4 334.4,324.7 339.1,317.5 347.7,317.9 351.6,325.6 346.9,332.8 		"/>
	</g>
	<g class="st0">
		<polygon class="st5" points="324.6,387.9 320.7,380.2 325.3,373 334,373.4 337.9,381.1 333.2,388.3 		"/>
	</g>
	<g class="st0">
		<polygon class="st5" points="324.6,372 320.7,364.4 325.3,357.1 334,357.6 337.9,365.2 333.2,372.5 		"/>
	</g>
	<g class="st0">
		<polygon class="st5" points="324.6,356.2 320.7,348.5 325.3,341.3 334,341.7 337.9,349.4 333.2,356.6 		"/>
	</g>
	<g class="st0">
		<polygon class="st5" points="324.6,340.3 320.7,332.6 325.3,325.4 334,325.8 337.9,333.5 333.2,340.8 		"/>
	</g>
	<g class="st0">
		<polygon class="st5" points="324.6,324.5 320.7,316.8 325.3,309.5 334,310 337.9,317.6 333.2,324.9 		"/>
	</g>
	<g class="st0">
		<polygon class="st5" points="310.9,427.6 306.9,419.9 311.6,412.6 320.2,413.1 324.2,420.8 319.5,428 		"/>
	</g>
	<g class="st0">
		<polygon class="st5" points="310.9,411.7 306.9,404 311.6,396.8 320.2,397.2 324.2,404.9 319.5,412.1 		"/>
	</g>
	<g class="st0">
		<polygon class="st5" points="310.9,395.8 306.9,388.2 311.6,380.9 320.2,381.4 324.2,389 319.5,396.3 		"/>
	</g>
	<g class="st0">
		<polygon class="st5" points="310.9,380 306.9,372.3 311.6,365.1 320.2,365.5 324.2,373.2 319.5,380.4 		"/>
	</g>
	<g class="st0">
		<polygon class="st5" points="310.9,364.1 306.9,356.5 311.6,349.2 320.2,349.6 324.2,357.3 319.5,364.5 		"/>
	</g>
	<g class="st0">
		<polygon class="st5" points="310.9,348.3 306.9,340.6 311.6,333.3 320.2,333.8 324.2,341.4 319.5,348.7 		"/>
	</g>
	<g class="st0">
		<polygon class="st5" points="310.9,332.4 306.9,324.7 311.6,317.5 320.2,317.9 324.2,325.6 319.5,332.8 		"/>
	</g>
	<g class="st0">
		<polygon class="st5" points="310.9,316.5 306.9,308.9 311.6,301.6 320.2,302 324.2,309.7 319.5,317 		"/>
	</g>
	<g class="st0">
		<polygon class="st5" points="297.2,419.6 293.2,412 297.9,404.7 306.5,405.1 310.5,412.8 305.8,420.1 		"/>
	</g>
	<g class="st0">
		<polygon class="st5" points="297.2,403.8 293.2,396.1 297.9,388.9 306.5,389.3 310.5,397 305.8,404.2 		"/>
	</g>
	<g class="st0">
		<polygon class="st5" points="297.2,387.9 293.2,380.2 297.9,373 306.5,373.4 310.5,381.1 305.8,388.3 		"/>
	</g>
	<g class="st0">
		<polygon class="st5" points="297.2,372 293.2,364.4 297.9,357.1 306.5,357.6 310.5,365.2 305.8,372.5 		"/>
	</g>
	<g class="st0">
		<polygon class="st5" points="297.2,356.2 293.2,348.5 297.9,341.3 306.5,341.7 310.5,349.4 305.8,356.6 		"/>
	</g>
	<g class="st0">
		<polygon class="st5" points="297.2,340.3 293.2,332.6 297.9,325.4 306.5,325.8 310.5,333.5 305.8,340.8 		"/>
	</g>
	<g class="st0">
		<polygon class="st5" points="297.2,324.5 293.2,316.8 297.9,309.5 306.5,310 310.5,317.6 305.8,324.9 		"/>
	</g>
	<g class="st0">
		<polygon class="st5" points="283.4,427.6 279.5,419.9 284.2,412.6 292.8,413.1 296.7,420.8 292,428 		"/>
	</g>
	<g class="st0">
		<polygon class="st5" points="283.4,411.7 279.5,404 284.2,396.8 292.8,397.2 296.7,404.9 292,412.1 		"/>
	</g>
	<g class="st0">
		<polygon class="st5" points="283.4,395.8 279.5,388.2 284.2,380.9 292.8,381.4 296.7,389 292,396.3 		"/>
	</g>
	<g class="st0">
		<polygon class="st5" points="352,340.3 348.1,332.6 352.8,325.4 361.4,325.8 365.3,333.5 360.6,340.8 		"/>
	</g>
</g>
<g id="SK">
	<g class="st0">
		<polygon class="st6" points="283.4,380 279.5,372.3 284.2,365.1 292.8,365.5 296.7,373.2 292,380.4 		"/>
	</g>
	<g class="st0">
		<polygon class="st6" points="283.4,364.1 279.5,356.5 284.2,349.2 292.8,349.6 296.7,357.3 292,364.5 		"/>
	</g>
	<g class="st0">
		<polygon class="st6" points="283.4,348.3 279.5,340.6 284.2,333.3 292.8,333.8 296.7,341.4 292,348.7 		"/>
	</g>
	<g class="st0">
		<polygon class="st6" points="283.4,332.4 279.5,324.7 284.2,317.5 292.8,317.9 296.7,325.6 292,332.8 		"/>
	</g>
	<g class="st0">
		<polygon class="st6" points="283.4,316.5 279.5,308.9 284.2,301.6 292.8,302 296.7,309.7 292,317 		"/>
	</g>
	<g class="st0">
		<polygon class="st6" points="269.7,419.6 265.8,412 270.5,404.7 279.1,405.1 283,412.8 278.3,420.1 		"/>
	</g>
	<g class="st0">
		<polygon class="st6" points="269.7,403.8 265.8,396.1 270.5,388.9 279.1,389.3 283,397 278.3,404.2 		"/>
	</g>
	<g class="st0">
		<polygon class="st6" points="269.7,387.9 265.8,380.2 270.5,373 279.1,373.4 283,381.1 278.3,388.3 		"/>
	</g>
	<g class="st0">
		<polygon class="st6" points="269.7,372 265.8,364.4 270.5,357.1 279.1,357.6 283,365.2 278.3,372.5 		"/>
	</g>
	<g class="st0">
		<polygon class="st6" points="269.7,356.2 265.8,348.5 270.5,341.3 279.1,341.7 283,349.4 278.3,356.6 		"/>
	</g>
	<g class="st0">
		<polygon class="st6" points="269.7,340.3 265.8,332.6 270.5,325.4 279.1,325.8 283,333.5 278.3,340.8 		"/>
	</g>
	<g class="st0">
		<polygon class="st6" points="269.7,324.5 265.8,316.8 270.5,309.5 279.1,310 283,317.6 278.3,324.9 		"/>
	</g>
	<g class="st0">
		<polygon class="st6" points="269.7,308.6 265.8,300.9 270.5,293.7 279.1,294.1 283,301.8 278.3,309 		"/>
	</g>
	<g class="st0">
		<polygon class="st6" points="256,411.7 252.1,404 256.7,396.8 265.4,397.2 269.3,404.9 264.6,412.1 		"/>
	</g>
	<g class="st0">
		<polygon class="st6" points="256,395.8 252.1,388.2 256.7,380.9 265.4,381.4 269.3,389 264.6,396.3 		"/>
	</g>
	<g class="st0">
		<polygon class="st6" points="256,380 252.1,372.3 256.7,365.1 265.4,365.5 269.3,373.2 264.6,380.4 		"/>
	</g>
	<g class="st0">
		<polygon class="st6" points="256,364.1 252.1,356.5 256.7,349.2 265.4,349.6 269.3,357.3 264.6,364.5 		"/>
	</g>
	<g class="st0">
		<polygon class="st6" points="256,348.3 252.1,340.6 256.7,333.3 265.4,333.8 269.3,341.4 264.6,348.7 		"/>
	</g>
	<g class="st0">
		<polygon class="st6" points="256,332.4 252.1,324.7 256.7,317.5 265.4,317.9 269.3,325.6 264.6,332.8 		"/>
	</g>
	<g class="st0">
		<polygon class="st6" points="256,316.5 252.1,308.9 256.7,301.6 265.4,302 269.3,309.7 264.6,317 		"/>
	</g>
	<g class="st0">
		<polygon class="st6" points="242.3,419.6 238.3,412 243,404.7 251.6,405.1 255.6,412.8 250.9,420.1 		"/>
	</g>
	<g class="st0">
		<polygon class="st6" points="242.3,403.8 238.3,396.1 243,388.9 251.6,389.3 255.6,397 250.9,404.2 		"/>
	</g>
	<g class="st0">
		<polygon class="st6" points="242.3,387.9 238.3,380.2 243,373 251.6,373.4 255.6,381.1 250.9,388.3 		"/>
	</g>
	<g class="st0">
		<polygon class="st6" points="242.3,372 238.3,364.4 243,357.1 251.6,357.6 255.6,365.2 250.9,372.5 		"/>
	</g>
	<g class="st0">
		<polygon class="st6" points="242.3,356.2 238.3,348.5 243,341.3 251.6,341.7 255.6,349.4 250.9,356.6 		"/>
	</g>
	<g class="st0">
		<polygon class="st6" points="242.3,340.3 238.3,332.6 243,325.4 251.6,325.8 255.6,333.5 250.9,340.8 		"/>
	</g>
	<g class="st0">
		<polygon class="st6" points="228.6,411.7 224.6,404 229.3,396.8 237.9,397.2 241.9,404.9 237.2,412.1 		"/>
	</g>
	<g class="st0">
		<polygon class="st6" points="228.6,395.8 224.6,388.2 229.3,380.9 237.9,381.4 241.9,389 237.2,396.3 		"/>
	</g>
	<g class="st0">
		<polygon class="st6" points="256,427.6 252.1,419.9 256.7,412.6 265.4,413.1 269.3,420.8 264.6,428 		"/>
	</g>
</g>
<g id="AB">
	<g class="st0">
		<polygon class="st7" points="242.3,324.5 238.3,316.8 243,309.5 251.6,310 255.6,317.6 250.9,324.9 		"/>
	</g>
	<g class="st0">
		<polygon class="st7" points="242.3,308.6 238.3,300.9 243,293.7 251.6,294.1 255.6,301.8 250.9,309 		"/>
	</g>
	<g class="st0">
		<polygon class="st7" points="228.6,380 224.6,372.3 229.3,365.1 237.9,365.5 241.9,373.2 237.2,380.4 		"/>
	</g>
	<g class="st0">
		<polygon class="st7" points="228.6,364.1 224.6,356.5 229.3,349.2 237.9,349.6 241.9,357.3 237.2,364.5 		"/>
	</g>
	<g class="st0">
		<polygon class="st7" points="228.6,348.3 224.6,340.6 229.3,333.3 237.9,333.8 241.9,341.4 237.2,348.7 		"/>
	</g>
	<g class="st0">
		<polygon class="st7" points="228.6,332.4 224.6,324.7 229.3,317.5 237.9,317.9 241.9,325.6 237.2,332.8 		"/>
	</g>
	<g class="st0">
		<polygon class="st7" points="228.6,316.5 224.6,308.9 229.3,301.6 237.9,302 241.9,309.7 237.2,317 		"/>
	</g>
	<g class="st0">
		<polygon class="st7" points="228.6,300.7 224.6,293 229.3,285.8 237.9,286.2 241.9,293.9 237.2,301.1 		"/>
	</g>
	<g class="st0">
		<polygon class="st7" points="214.8,403.8 210.9,396.1 215.6,388.9 224.2,389.3 228.1,397 223.4,404.2 		"/>
	</g>
	<g class="st0">
		<polygon class="st7" points="214.8,387.9 210.9,380.2 215.6,373 224.2,373.4 228.1,381.1 223.4,388.3 		"/>
	</g>
	<g class="st0">
		<polygon class="st7" points="214.8,372 210.9,364.4 215.6,357.1 224.2,357.6 228.1,365.2 223.4,372.5 		"/>
	</g>
	<g class="st0">
		<polygon class="st7" points="214.8,356.2 210.9,348.5 215.6,341.3 224.2,341.7 228.1,349.4 223.4,356.6 		"/>
	</g>
	<g class="st0">
		<polygon class="st7" points="214.8,340.3 210.9,332.6 215.6,325.4 224.2,325.8 228.1,333.5 223.4,340.8 		"/>
	</g>
	<g class="st0">
		<polygon class="st7" points="214.8,324.5 210.9,316.8 215.6,309.5 224.2,310 228.1,317.6 223.4,324.9 		"/>
	</g>
	<g class="st0">
		<polygon class="st7" points="214.8,308.6 210.9,300.9 215.6,293.7 224.2,294.1 228.1,301.8 223.4,309 		"/>
	</g>
	<g class="st0">
		<polygon class="st7" points="201.1,411.7 197.2,404 201.9,396.8 210.5,397.2 214.4,404.9 209.7,412.1 		"/>
	</g>
	<g class="st0">
		<polygon class="st7" points="201.1,395.8 197.2,388.2 201.9,380.9 210.5,381.4 214.4,389 209.7,396.3 		"/>
	</g>
	<g class="st0">
		<polygon class="st7" points="201.1,380 197.2,372.3 201.9,365.1 210.5,365.5 214.4,373.2 209.7,380.4 		"/>
	</g>
	<g class="st0">
		<polygon class="st7" points="201.1,364.1 197.2,356.5 201.9,349.2 210.5,349.6 214.4,357.3 209.7,364.5 		"/>
	</g>
	<g class="st0">
		<polygon class="st7" points="201.1,348.3 197.2,340.6 201.9,333.3 210.5,333.8 214.4,341.4 209.7,348.7 		"/>
	</g>
	<g class="st0">
		<polygon class="st7" points="201.1,332.4 197.2,324.7 201.9,317.5 210.5,317.9 214.4,325.6 209.7,332.8 		"/>
	</g>
	<g class="st0">
		<polygon class="st7" points="201.1,316.5 197.2,308.9 201.9,301.6 210.5,302 214.4,309.7 209.7,317 		"/>
	</g>
	<g class="st0">
		<polygon class="st7" points="201.1,300.7 197.2,293 201.9,285.8 210.5,286.2 214.4,293.9 209.7,301.1 		"/>
	</g>
	<g class="st0">
		<polygon class="st7" points="187.4,372 183.5,364.4 188.1,357.1 196.8,357.6 200.7,365.2 196,372.5 		"/>
	</g>
	<g class="st0">
		<polygon class="st7" points="187.4,356.2 183.5,348.5 188.1,341.3 196.8,341.7 200.7,349.4 196,356.6 		"/>
	</g>
	<g class="st0">
		<polygon class="st7" points="187.4,340.3 183.5,332.6 188.1,325.4 196.8,325.8 200.7,333.5 196,340.8 		"/>
	</g>
	<g class="st0">
		<polygon class="st7" points="187.4,324.5 183.5,316.8 188.1,309.5 196.8,310 200.7,317.6 196,324.9 		"/>
	</g>
	<g class="st0">
		<polygon class="st7" points="214.8,419.6 210.9,412 215.6,404.7 224.2,405.1 228.1,412.8 223.4,420.1 		"/>
	</g>
</g>
<g id="BC">
	<g class="st0">
		<polygon class="st3" points="187.4,403.8 183.5,396.1 188.1,388.9 196.8,389.3 200.7,397 196,404.2 		"/>
	</g>
	<g class="st0">
		<polygon class="st3" points="187.4,387.9 183.5,380.2 188.1,373 196.8,373.4 200.7,381.1 196,388.3 		"/>
	</g>
	<g class="st0">
		<polygon class="st3" points="187.4,308.6 183.5,300.9 188.1,293.7 196.8,294.1 200.7,301.8 196,309 		"/>
	</g>
	<g class="st0">
		<polygon class="st3" points="187.4,292.8 183.5,285.1 188.1,277.8 196.8,278.2 200.7,285.9 196,293.2 		"/>
	</g>
	<g class="st0">
		<polygon class="st3" points="173.7,395.8 169.7,388.2 174.4,380.9 183,381.4 187,389 182.3,396.3 		"/>
	</g>
	<g class="st0">
		<polygon class="st3" points="173.7,380 169.7,372.3 174.4,365.1 183,365.5 187,373.2 182.3,380.4 		"/>
	</g>
	<g class="st0">
		<polygon class="st3" points="173.7,364.1 169.7,356.5 174.4,349.2 183,349.6 187,357.3 182.3,364.5 		"/>
	</g>
	<g class="st0">
		<polygon class="st3" points="173.7,348.3 169.7,340.6 174.4,333.3 183,333.8 187,341.4 182.3,348.7 		"/>
	</g>
	<g class="st0">
		<polygon class="st3" points="173.7,332.4 169.7,324.7 174.4,317.5 183,317.9 187,325.6 182.3,332.8 		"/>
	</g>
	<g class="st0">
		<polygon class="st3" points="173.7,316.5 169.7,308.9 174.4,301.6 183,302 187,309.7 182.3,317 		"/>
	</g>
	<g class="st0">
		<polygon class="st3" points="173.7,300.7 169.7,293 174.4,285.8 183,286.2 187,293.9 182.3,301.1 		"/>
	</g>
	<g class="st0">
		<polygon class="st3" points="173.7,284.8 169.7,277.1 174.4,269.9 183,270.3 187,278 182.3,285.2 		"/>
	</g>
	<g class="st0">
		<polygon class="st3" points="160,387.9 156,380.2 160.7,373 169.3,373.4 173.2,381.1 168.6,388.3 		"/>
	</g>
	<g class="st0">
		<polygon class="st3" points="160,372 156,364.4 160.7,357.1 169.3,357.6 173.2,365.2 168.6,372.5 		"/>
	</g>
	<g class="st0">
		<polygon class="st3" points="160,356.2 156,348.5 160.7,341.3 169.3,341.7 173.2,349.4 168.6,356.6 		"/>
	</g>
	<g class="st0">
		<polygon class="st3" points="160,340.3 156,332.6 160.7,325.4 169.3,325.8 173.2,333.5 168.6,340.8 		"/>
	</g>
	<g class="st0">
		<polygon class="st3" points="160,324.5 156,316.8 160.7,309.5 169.3,310 173.2,317.6 168.6,324.9 		"/>
	</g>
	<g class="st0">
		<polygon class="st3" points="160,308.6 156,300.9 160.7,293.7 169.3,294.1 173.2,301.8 168.6,309 		"/>
	</g>
	<g class="st0">
		<polygon class="st3" points="160,292.8 156,285.1 160.7,277.8 169.3,278.2 173.2,285.9 168.6,293.2 		"/>
	</g>
	<g class="st0">
		<polygon class="st3" points="160,276.9 156,269.2 160.7,262 169.3,262.4 173.2,270.1 168.6,277.3 		"/>
	</g>
	<g class="st0">
		<polygon class="st3" points="146.2,380 142.3,372.3 147,365.1 155.6,365.5 159.5,373.2 154.9,380.4 		"/>
	</g>
	<g class="st0">
		<polygon class="st3" points="146.2,364.1 142.3,356.5 147,349.2 155.6,349.6 159.5,357.3 154.9,364.5 		"/>
	</g>
	<g class="st0">
		<polygon class="st3" points="146.2,348.3 142.3,340.6 147,333.3 155.6,333.8 159.5,341.4 154.9,348.7 		"/>
	</g>
	<g class="st0">
		<polygon class="st3" points="146.2,332.4 142.3,324.7 147,317.5 155.6,317.9 159.5,325.6 154.9,332.8 		"/>
	</g>
	<g class="st0">
		<polygon class="st3" points="146.2,316.5 142.3,308.9 147,301.6 155.6,302 159.5,309.7 154.9,317 		"/>
	</g>
	<g class="st0">
		<polygon class="st3" points="146.2,300.7 142.3,293 147,285.8 155.6,286.2 159.5,293.9 154.9,301.1 		"/>
	</g>
	<g class="st0">
		<polygon class="st3" points="146.2,284.8 142.3,277.1 147,269.9 155.6,270.3 159.5,278 154.9,285.2 		"/>
	</g>
	<g class="st0">
		<polygon class="st3" points="146.2,269 142.3,261.3 147,254 155.6,254.5 159.5,262.1 154.9,269.4 		"/>
	</g>
	<g class="st0">
		<polygon class="st3" points="132.5,387.9 128.6,380.2 133.3,373 141.9,373.4 145.8,381.1 141.1,388.3 		"/>
	</g>
	<g class="st0">
		<polygon class="st3" points="132.5,372 128.6,364.4 133.3,357.1 141.9,357.6 145.8,365.2 141.1,372.5 		"/>
	</g>
	<g class="st0">
		<polygon class="st3" points="132.5,356.2 128.6,348.5 133.3,341.3 141.9,341.7 145.8,349.4 141.1,356.6 		"/>
	</g>
	<g class="st0">
		<polygon class="st3" points="132.5,340.3 128.6,332.6 133.3,325.4 141.9,325.8 145.8,333.5 141.1,340.8 		"/>
	</g>
	<g class="st0">
		<polygon class="st3" points="132.5,324.5 128.6,316.8 133.3,309.5 141.9,310 145.8,317.6 141.1,324.9 		"/>
	</g>
	<g class="st0">
		<polygon class="st3" points="132.5,308.6 128.6,300.9 133.3,293.7 141.9,294.1 145.8,301.8 141.1,309 		"/>
	</g>
	<g class="st0">
		<polygon class="st3" points="132.5,292.8 128.6,285.1 133.3,277.8 141.9,278.2 145.8,285.9 141.1,293.2 		"/>
	</g>
	<g class="st0">
		<polygon class="st3" points="132.5,276.9 128.6,269.2 133.3,262 141.9,262.4 145.8,270.1 141.1,277.3 		"/>
	</g>
	<g class="st0">
		<polygon class="st3" points="132.5,261 128.6,253.4 133.3,246.1 141.9,246.5 145.8,254.2 141.1,261.5 		"/>
	</g>
	<g class="st0">
		<polygon class="st3" points="118.8,380 114.9,372.3 119.5,365.1 128.2,365.5 132.1,373.2 127.4,380.4 		"/>
	</g>
	<g class="st0">
		<polygon class="st3" points="118.8,364.1 114.9,356.5 119.5,349.2 128.2,349.6 132.1,357.3 127.4,364.5 		"/>
	</g>
	<g class="st0">
		<polygon class="st3" points="118.8,348.3 114.9,340.6 119.5,333.3 128.2,333.8 132.1,341.4 127.4,348.7 		"/>
	</g>
	<g class="st0">
		<polygon class="st3" points="118.8,332.4 114.9,324.7 119.5,317.5 128.2,317.9 132.1,325.6 127.4,332.8 		"/>
	</g>
	<g class="st0">
		<polygon class="st3" points="118.8,316.5 114.9,308.9 119.5,301.6 128.2,302 132.1,309.7 127.4,317 		"/>
	</g>
	<g class="st0">
		<polygon class="st3" points="160,403.8 156,396.1 160.7,388.9 169.3,389.3 173.2,397 168.6,404.2 		"/>
	</g>
	<g class="st0">
		<polygon class="st3" points="146.2,395.8 142.3,388.2 147,380.9 155.6,381.4 159.5,389 154.9,396.3 		"/>
	</g>
	<g class="st0">
		<polygon class="st3" points="105.1,340.3 101.1,332.6 105.8,325.4 114.4,325.8 118.4,333.5 113.7,340.8 		"/>
	</g>
	<g class="st0">
		<polygon class="st3" points="105.1,324.5 101.1,316.8 105.8,309.5 114.4,310 118.4,317.6 113.7,324.9 		"/>
	</g>
	<g class="st0">
		<polygon class="st3" points="105.1,308.6 101.1,300.9 105.8,293.7 114.4,294.1 118.4,301.8 113.7,309 		"/>
	</g>
	<g class="st0">
		<polygon class="st3" points="118.8,300.7 114.9,293 119.5,285.8 128.2,286.2 132.1,293.9 127.4,301.1 		"/>
	</g>
	<g class="st0">
		<polygon class="st3" points="118.8,284.8 114.9,277.1 119.5,269.9 128.2,270.3 132.1,278 127.4,285.2 		"/>
	</g>
	<g class="st0">
		<polygon class="st3" points="118.8,269 114.9,261.3 119.5,254 128.2,254.5 132.1,262.1 127.4,269.4 		"/>
	</g>
</g>
<g id="YT">
	<g class="st0">
		<polygon class="st8" points="160,261 156,253.4 160.7,246.1 169.3,246.5 173.2,254.2 168.6,261.5 		"/>
	</g>
	<g class="st0">
		<polygon class="st8" points="160,245.2 156,237.5 160.7,230.2 169.3,230.7 173.2,238.3 168.6,245.6 		"/>
	</g>
	<g class="st0">
		<polygon class="st8" points="160,229.3 156,221.6 160.7,214.4 169.3,214.8 173.2,222.5 168.6,229.7 		"/>
	</g>
	<g class="st0">
		<polygon class="st8" points="160,213.4 156,205.8 160.7,198.5 169.3,198.9 173.2,206.6 168.6,213.9 		"/>
	</g>
	<g class="st0">
		<polygon class="st8" points="160,197.6 156,189.9 160.7,182.7 169.3,183.1 173.2,190.8 168.6,198 		"/>
	</g>
	<g class="st0">
		<polygon class="st8" points="160,181.7 156,174 160.7,166.8 169.3,167.2 173.2,174.9 168.6,182.1 		"/>
	</g>
	<g class="st0">
		<polygon class="st8" points="160,165.9 156,158.2 160.7,150.9 169.3,151.4 173.2,159 168.6,166.3 		"/>
	</g>
	<g class="st0">
		<polygon class="st8" points="160,150 156,142.3 160.7,135.1 169.3,135.5 173.2,143.2 168.6,150.4 		"/>
	</g>
	<g class="st0">
		<polygon class="st8" points="146.2,253.1 142.3,245.4 147,238.2 155.6,238.6 159.5,246.3 154.9,253.5 		"/>
	</g>
	<g class="st0">
		<polygon class="st8" points="146.2,237.2 142.3,229.6 147,222.3 155.6,222.7 159.5,230.4 154.9,237.7 		"/>
	</g>
	<g class="st0">
		<polygon class="st8" points="146.2,221.4 142.3,213.7 147,206.4 155.6,206.9 159.5,214.6 154.9,221.8 		"/>
	</g>
	<g class="st0">
		<polygon class="st8" points="146.2,205.5 142.3,197.8 147,190.6 155.6,191 159.5,198.7 154.9,205.9 		"/>
	</g>
	<g class="st0">
		<polygon class="st8" points="146.2,189.6 142.3,182 147,174.7 155.6,175.2 159.5,182.8 154.9,190.1 		"/>
	</g>
	<g class="st0">
		<polygon class="st8" points="146.2,173.8 142.3,166.1 147,158.9 155.6,159.3 159.5,167 154.9,174.2 		"/>
	</g>
	<g class="st0">
		<polygon class="st8" points="146.2,157.9 142.3,150.2 147,143 155.6,143.4 159.5,151.1 154.9,158.4 		"/>
	</g>
	<g class="st0">
		<polygon class="st8" points="132.5,245.2 128.6,237.5 133.3,230.2 141.9,230.7 145.8,238.3 141.1,245.6 		"/>
	</g>
	<g class="st0">
		<polygon class="st8" points="132.5,229.3 128.6,221.6 133.3,214.4 141.9,214.8 145.8,222.5 141.1,229.7 		"/>
	</g>
	<g class="st0">
		<polygon class="st8" points="132.5,213.4 128.6,205.8 133.3,198.5 141.9,198.9 145.8,206.6 141.1,213.9 		"/>
	</g>
	<g class="st0">
		<polygon class="st8" points="132.5,197.6 128.6,189.9 133.3,182.7 141.9,183.1 145.8,190.8 141.1,198 		"/>
	</g>
	<g class="st0">
		<polygon class="st8" points="132.5,181.7 128.6,174 133.3,166.8 141.9,167.2 145.8,174.9 141.1,182.1 		"/>
	</g>
	<g class="st0">
		<polygon class="st8" points="118.8,237.2 114.9,229.6 119.5,222.3 128.2,222.7 132.1,230.4 127.4,237.7 		"/>
	</g>
	<g class="st0">
		<polygon class="st8" points="118.8,221.4 114.9,213.7 119.5,206.4 128.2,206.9 132.1,214.6 127.4,221.8 		"/>
	</g>
	<g class="st0">
		<polygon class="st8" points="118.8,205.5 114.9,197.8 119.5,190.6 128.2,191 132.1,198.7 127.4,205.9 		"/>
	</g>
	<g class="st0">
		<polygon class="st8" points="118.8,189.6 114.9,182 119.5,174.7 128.2,175.2 132.1,182.8 127.4,190.1 		"/>
	</g>
	<g class="st0">
		<polygon class="st8" points="105.1,245.2 101.1,237.5 105.8,230.2 114.4,230.7 118.4,238.3 113.7,245.6 		"/>
	</g>
	<g class="st0">
		<polygon class="st8" points="105.1,229.3 101.1,221.6 105.8,214.4 114.4,214.8 118.4,222.5 113.7,229.7 		"/>
	</g>
	<g class="st0">
		<polygon class="st8" points="160,134.1 156,126.5 160.7,119.2 169.3,119.6 173.2,127.3 168.6,134.6 		"/>
	</g>
	<g class="st0">
		<polygon class="st8" points="118.8,253.1 114.9,245.4 119.5,238.2 128.2,238.6 132.1,246.3 127.4,253.5 		"/>
	</g>
	<g class="st0">
		<polygon class="st8" points="105.1,213.4 101.1,205.8 105.8,198.5 114.4,198.9 118.4,206.6 113.7,213.9 		"/>
	</g>
</g>
<g id="NU">
	<g class="st0">
		<polygon class="st9" points="393.2,269 389.3,261.3 393.9,254 402.5,254.5 406.5,262.1 401.8,269.4 		"/>
	</g>
	<g class="st0">
		<polygon class="st9" points="379.5,261 375.5,253.4 380.2,246.1 388.8,246.5 392.8,254.2 388.1,261.5 		"/>
	</g>
	<g class="st0">
		<polygon class="st9" points="379.5,229.3 375.5,221.6 380.2,214.4 388.8,214.8 392.8,222.5 388.1,229.7 		"/>
	</g>
	<g class="st0">
		<polygon class="st9" points="365.8,269 361.8,261.3 366.5,254 375.1,254.5 379,262.1 374.4,269.4 		"/>
	</g>
	<g class="st0">
		<polygon class="st9" points="365.8,253.1 361.8,245.4 366.5,238.2 375.1,238.6 379,246.3 374.4,253.5 		"/>
	</g>
	<g class="st0">
		<polygon class="st9" points="365.8,237.2 361.8,229.6 366.5,222.3 375.1,222.7 379,230.4 374.4,237.7 		"/>
	</g>
	<g class="st0">
		<polygon class="st9" points="365.8,221.4 361.8,213.7 366.5,206.4 375.1,206.9 379,214.6 374.4,221.8 		"/>
	</g>
	<g class="st0">
		<polygon class="st9" points="352,276.9 348.1,269.2 352.8,262 361.4,262.4 365.3,270.1 360.6,277.3 		"/>
	</g>
	<g class="st0">
		<polygon class="st9" points="352,261 348.1,253.4 352.8,246.1 361.4,246.5 365.3,254.2 360.6,261.5 		"/>
	</g>
	<g class="st0">
		<polygon class="st9" points="352,245.2 348.1,237.5 352.8,230.2 361.4,230.7 365.3,238.3 360.6,245.6 		"/>
	</g>
	<g class="st0">
		<polygon class="st9" points="352,229.3 348.1,221.6 352.8,214.4 361.4,214.8 365.3,222.5 360.6,229.7 		"/>
	</g>
	<g class="st0">
		<polygon class="st9" points="352,213.4 348.1,205.8 352.8,198.5 361.4,198.9 365.3,206.6 360.6,213.9 		"/>
	</g>
	<g class="st0">
		<polygon class="st9" points="338.3,284.8 334.4,277.1 339.1,269.9 347.7,270.3 351.6,278 346.9,285.2 		"/>
	</g>
	<g class="st0">
		<polygon class="st9" points="338.3,269 334.4,261.3 339.1,254 347.7,254.5 351.6,262.1 346.9,269.4 		"/>
	</g>
	<g class="st0">
		<polygon class="st9" points="338.3,253.1 334.4,245.4 339.1,238.2 347.7,238.6 351.6,246.3 346.9,253.5 		"/>
	</g>
	<g class="st0">
		<polygon class="st9" points="338.3,237.2 334.4,229.6 339.1,222.3 347.7,222.7 351.6,230.4 346.9,237.7 		"/>
	</g>
	<g class="st0">
		<polygon class="st9" points="338.3,221.4 334.4,213.7 339.1,206.4 347.7,206.9 351.6,214.6 346.9,221.8 		"/>
	</g>
	<g class="st0">
		<polygon class="st9" points="338.3,205.5 334.4,197.8 339.1,190.6 347.7,191 351.6,198.7 346.9,205.9 		"/>
	</g>
	<g class="st0">
		<polygon class="st9" points="338.3,189.6 334.4,182 339.1,174.7 347.7,175.2 351.6,182.8 346.9,190.1 		"/>
	</g>
	<g class="st0">
		<polygon class="st9" points="324.6,308.6 320.7,300.9 325.3,293.7 334,294.1 337.9,301.8 333.2,309 		"/>
	</g>
	<g class="st0">
		<polygon class="st9" points="324.6,292.8 320.7,285.1 325.3,277.8 334,278.2 337.9,285.9 333.2,293.2 		"/>
	</g>
	<g class="st0">
		<polygon class="st9" points="324.6,276.9 320.7,269.2 325.3,262 334,262.4 337.9,270.1 333.2,277.3 		"/>
	</g>
	<g class="st0">
		<polygon class="st9" points="324.6,261 320.7,253.4 325.3,246.1 334,246.5 337.9,254.2 333.2,261.5 		"/>
	</g>
	<g class="st0">
		<polygon class="st9" points="324.6,245.2 320.7,237.5 325.3,230.2 334,230.7 337.9,238.3 333.2,245.6 		"/>
	</g>
	<g class="st0">
		<polygon class="st9" points="324.6,229.3 320.7,221.6 325.3,214.4 334,214.8 337.9,222.5 333.2,229.7 		"/>
	</g>
	<g class="st0">
		<polygon class="st9" points="324.6,213.4 320.7,205.8 325.3,198.5 334,198.9 337.9,206.6 333.2,213.9 		"/>
	</g>
	<g class="st0">
		<polygon class="st9" points="310.9,300.7 306.9,293 311.6,285.8 320.2,286.2 324.2,293.9 319.5,301.1 		"/>
	</g>
	<g class="st0">
		<polygon class="st9" points="310.9,284.8 306.9,277.1 311.6,269.9 320.2,270.3 324.2,278 319.5,285.2 		"/>
	</g>
	<g class="st0">
		<polygon class="st9" points="310.9,269 306.9,261.3 311.6,254 320.2,254.5 324.2,262.1 319.5,269.4 		"/>
	</g>
	<g class="st0">
		<polygon class="st9" points="310.9,253.1 306.9,245.4 311.6,238.2 320.2,238.6 324.2,246.3 319.5,253.5 		"/>
	</g>
	<g class="st0">
		<polygon class="st9" points="310.9,237.2 306.9,229.6 311.6,222.3 320.2,222.7 324.2,230.4 319.5,237.7 		"/>
	</g>
	<g class="st0">
		<polygon class="st9" points="310.9,221.4 306.9,213.7 311.6,206.4 320.2,206.9 324.2,214.6 319.5,221.8 		"/>
	</g>
	<g class="st0">
		<polygon class="st9" points="297.2,308.6 293.2,300.9 297.9,293.7 306.5,294.1 310.5,301.8 305.8,309 		"/>
	</g>
	<g class="st0">
		<polygon class="st9" points="297.2,292.8 293.2,285.1 297.9,277.8 306.5,278.2 310.5,285.9 305.8,293.2 		"/>
	</g>
	<g class="st0">
		<polygon class="st9" points="297.2,276.9 293.2,269.2 297.9,262 306.5,262.4 310.5,270.1 305.8,277.3 		"/>
	</g>
	<g class="st0">
		<polygon class="st9" points="297.2,261 293.2,253.4 297.9,246.1 306.5,246.5 310.5,254.2 305.8,261.5 		"/>
	</g>
	<g class="st0">
		<polygon class="st9" points="297.2,245.2 293.2,237.5 297.9,230.2 306.5,230.7 310.5,238.3 305.8,245.6 		"/>
	</g>
	<g class="st0">
		<polygon class="st9" points="297.2,229.3 293.2,221.6 297.9,214.4 306.5,214.8 310.5,222.5 305.8,229.7 		"/>
	</g>
	<g class="st0">
		<polygon class="st9" points="297.2,213.4 293.2,205.8 297.9,198.5 306.5,198.9 310.5,206.6 305.8,213.9 		"/>
	</g>
	<g class="st0">
		<polygon class="st9" points="297.2,197.6 293.2,189.9 297.9,182.7 306.5,183.1 310.5,190.8 305.8,198 		"/>
	</g>
	<g class="st0">
		<polygon class="st9" points="297.2,181.7 293.2,174 297.9,166.8 306.5,167.2 310.5,174.9 305.8,182.1 		"/>
	</g>
	<g class="st0">
		<polygon class="st9" points="297.2,165.9 293.2,158.2 297.9,150.9 306.5,151.4 310.5,159 305.8,166.3 		"/>
	</g>
	<g class="st0">
		<polygon class="st9" points="297.2,150 293.2,142.3 297.9,135.1 306.5,135.5 310.5,143.2 305.8,150.4 		"/>
	</g>
	<g class="st0">
		<polygon class="st9" points="283.4,237.2 279.5,229.6 284.2,222.3 292.8,222.7 296.7,230.4 292,237.7 		"/>
	</g>
	<g class="st0">
		<polygon class="st9" points="283.4,221.4 279.5,213.7 284.2,206.4 292.8,206.9 296.7,214.6 292,221.8 		"/>
	</g>
	<g class="st0">
		<polygon class="st9" points="283.4,205.5 279.5,197.8 284.2,190.6 292.8,191 296.7,198.7 292,205.9 		"/>
	</g>
	<g class="st0">
		<polygon class="st9" points="283.4,189.6 279.5,182 284.2,174.7 292.8,175.2 296.7,182.8 292,190.1 		"/>
	</g>
	<g class="st0">
		<polygon class="st9" points="283.4,157.9 279.5,150.2 284.2,143 292.8,143.4 296.7,151.1 292,158.4 		"/>
	</g>
	<g class="st0">
		<polygon class="st9" points="269.7,229.3 265.8,221.6 270.5,214.4 279.1,214.8 283,222.5 278.3,229.7 		"/>
	</g>
	<g class="st0">
		<polygon class="st9" points="269.7,213.4 265.8,205.8 270.5,198.5 279.1,198.9 283,206.6 278.3,213.9 		"/>
	</g>
	<g class="st0">
		<polygon class="st9" points="269.7,197.6 265.8,189.9 270.5,182.7 279.1,183.1 283,190.8 278.3,198 		"/>
	</g>
	<g class="st0">
		<polygon class="st9" points="256,221.4 252.1,213.7 256.7,206.4 265.4,206.9 269.3,214.6 264.6,221.8 		"/>
	</g>
	<g class="st0">
		<polygon class="st9" points="256,205.5 252.1,197.8 256.7,190.6 265.4,191 269.3,198.7 264.6,205.9 		"/>
	</g>
	<g class="st0">
		<polygon class="st9" points="256,189.6 252.1,182 256.7,174.7 265.4,175.2 269.3,182.8 264.6,190.1 		"/>
	</g>
	<g class="st0">
		<polygon class="st9" points="242.3,213.4 238.3,205.8 243,198.5 251.6,198.9 255.6,206.6 250.9,213.9 		"/>
	</g>
	<g class="st0">
		<polygon class="st9" points="242.3,197.6 238.3,189.9 243,182.7 251.6,183.1 255.6,190.8 250.9,198 		"/>
	</g>
	<g class="st0">
		<polygon class="st9" points="475.5,269 471.6,261.3 476.3,254 484.9,254.5 488.8,262.1 484.1,269.4 		"/>
	</g>
	<g class="st0">
		<polygon class="st9" points="475.5,253.1 471.6,245.4 476.3,238.2 484.9,238.6 488.8,246.3 484.1,253.5 		"/>
	</g>
	<g class="st0">
		<polygon class="st9" points="475.5,237.2 471.6,229.6 476.3,222.3 484.9,222.7 488.8,230.4 484.1,237.7 		"/>
	</g>
	<g class="st0">
		<polygon class="st9" points="475.5,221.4 471.6,213.7 476.3,206.4 484.9,206.9 488.8,214.6 484.1,221.8 		"/>
	</g>
	<g class="st0">
		<polygon class="st9" points="461.8,261 457.9,253.4 462.5,246.1 471.1,246.5 475.1,254.2 470.4,261.5 		"/>
	</g>
	<g class="st0">
		<polygon class="st9" points="461.8,245.2 457.9,237.5 462.5,230.2 471.1,230.7 475.1,238.3 470.4,245.6 		"/>
	</g>
	<g class="st0">
		<polygon class="st9" points="461.8,229.3 457.9,221.6 462.5,214.4 471.1,214.8 475.1,222.5 470.4,229.7 		"/>
	</g>
	<g class="st0">
		<polygon class="st9" points="461.8,213.4 457.9,205.8 462.5,198.5 471.1,198.9 475.1,206.6 470.4,213.9 		"/>
	</g>
	<g class="st0">
		<polygon class="st9" points="448.1,269 444.1,261.3 448.8,254 457.4,254.5 461.4,262.1 456.7,269.4 		"/>
	</g>
	<g class="st0">
		<polygon class="st9" points="448.1,253.1 444.1,245.4 448.8,238.2 457.4,238.6 461.4,246.3 456.7,253.5 		"/>
	</g>
	<g class="st0">
		<polygon class="st9" points="448.1,237.2 444.1,229.6 448.8,222.3 457.4,222.7 461.4,230.4 456.7,237.7 		"/>
	</g>
	<g class="st0">
		<polygon class="st9" points="448.1,221.4 444.1,213.7 448.8,206.4 457.4,206.9 461.4,214.6 456.7,221.8 		"/>
	</g>
	<g class="st0">
		<polygon class="st9" points="448.1,205.5 444.1,197.8 448.8,190.6 457.4,191 461.4,198.7 456.7,205.9 		"/>
	</g>
	<g class="st0">
		<polygon class="st9" points="448.1,189.6 444.1,182 448.8,174.7 457.4,175.2 461.4,182.8 456.7,190.1 		"/>
	</g>
	<g class="st0">
		<polygon class="st9" points="434.4,261 430.4,253.4 435.1,246.1 443.7,246.5 447.6,254.2 443,261.5 		"/>
	</g>
	<g class="st0">
		<polygon class="st9" points="434.4,245.2 430.4,237.5 435.1,230.2 443.7,230.7 447.6,238.3 443,245.6 		"/>
	</g>
	<g class="st0">
		<polygon class="st9" points="434.4,229.3 430.4,221.6 435.1,214.4 443.7,214.8 447.6,222.5 443,229.7 		"/>
	</g>
	<g class="st0">
		<polygon class="st9" points="434.4,213.4 430.4,205.8 435.1,198.5 443.7,198.9 447.6,206.6 443,213.9 		"/>
	</g>
	<g class="st0">
		<polygon class="st9" points="434.4,197.6 430.4,189.9 435.1,182.7 443.7,183.1 447.6,190.8 443,198 		"/>
	</g>
	<g class="st0">
		<polygon class="st9" points="434.4,181.7 430.4,174 435.1,166.8 443.7,167.2 447.6,174.9 443,182.1 		"/>
	</g>
	<g class="st0">
		<polygon class="st9" points="420.6,269 416.7,261.3 421.4,254 430,254.5 433.9,262.1 429.2,269.4 		"/>
	</g>
	<g class="st0">
		<polygon class="st9" points="420.6,253.1 416.7,245.4 421.4,238.2 430,238.6 433.9,246.3 429.2,253.5 		"/>
	</g>
	<g class="st0">
		<polygon class="st9" points="420.6,237.2 416.7,229.6 421.4,222.3 430,222.7 433.9,230.4 429.2,237.7 		"/>
	</g>
	<g class="st0">
		<polygon class="st9" points="420.6,221.4 416.7,213.7 421.4,206.4 430,206.9 433.9,214.6 429.2,221.8 		"/>
	</g>
	<g class="st0">
		<polygon class="st9" points="420.6,205.5 416.7,197.8 421.4,190.6 430,191 433.9,198.7 429.2,205.9 		"/>
	</g>
	<g class="st0">
		<polygon class="st9" points="420.6,189.6 416.7,182 421.4,174.7 430,175.2 433.9,182.8 429.2,190.1 		"/>
	</g>
	<g class="st0">
		<polygon class="st9" points="420.6,173.8 416.7,166.1 421.4,158.9 430,159.3 433.9,167 429.2,174.2 		"/>
	</g>
	<g class="st0">
		<polygon class="st9" points="406.9,276.9 403,269.2 407.7,262 416.3,262.4 420.2,270.1 415.5,277.3 		"/>
	</g>
	<g class="st0">
		<polygon class="st9" points="406.9,261 403,253.4 407.7,246.1 416.3,246.5 420.2,254.2 415.5,261.5 		"/>
	</g>
	<g class="st0">
		<polygon class="st9" points="406.9,245.2 403,237.5 407.7,230.2 416.3,230.7 420.2,238.3 415.5,245.6 		"/>
	</g>
	<g class="st0">
		<polygon class="st9" points="406.9,229.3 403,221.6 407.7,214.4 416.3,214.8 420.2,222.5 415.5,229.7 		"/>
	</g>
	<g class="st0">
		<polygon class="st9" points="406.9,213.4 403,205.8 407.7,198.5 416.3,198.9 420.2,206.6 415.5,213.9 		"/>
	</g>
	<g class="st0">
		<polygon class="st9" points="406.9,197.6 403,189.9 407.7,182.7 416.3,183.1 420.2,190.8 415.5,198 		"/>
	</g>
	<g class="st0">
		<polygon class="st9" points="406.9,181.7 403,174 407.7,166.8 416.3,167.2 420.2,174.9 415.5,182.1 		"/>
	</g>
	<g class="st0">
		<polygon class="st9" points="406.9,54.8 403,47.2 407.7,39.9 416.3,40.3 420.2,48 415.5,55.3 		"/>
	</g>
	<g class="st0">
		<polygon class="st9" points="406.9,39 403,31.3 407.7,24 416.3,24.5 420.2,32.2 415.5,39.4 		"/>
	</g>
	<g class="st0">
		<polygon class="st9" points="406.9,23.1 403,15.4 407.7,8.2 416.3,8.6 420.2,16.3 415.5,23.5 		"/>
	</g>
	<g class="st0">
		<polygon class="st9" points="393.2,253.1 389.3,245.4 393.9,238.2 402.5,238.6 406.5,246.3 401.8,253.5 		"/>
	</g>
	<g class="st0">
		<polygon class="st9" points="393.2,237.2 389.3,229.6 393.9,222.3 402.5,222.7 406.5,230.4 401.8,237.7 		"/>
	</g>
	<g class="st0">
		<polygon class="st9" points="393.2,221.4 389.3,213.7 393.9,206.4 402.5,206.9 406.5,214.6 401.8,221.8 		"/>
	</g>
	<g class="st0">
		<polygon class="st9" points="393.2,205.5 389.3,197.8 393.9,190.6 402.5,191 406.5,198.7 401.8,205.9 		"/>
	</g>
	<g class="st0">
		<polygon class="st9" points="393.2,189.6 389.3,182 393.9,174.7 402.5,175.2 406.5,182.8 401.8,190.1 		"/>
	</g>
	<g class="st0">
		<polygon class="st9" points="393.2,173.8 389.3,166.1 393.9,158.9 402.5,159.3 406.5,167 401.8,174.2 		"/>
	</g>
	<g class="st0">
		<polygon class="st9" points="393.2,157.9 389.3,150.2 393.9,143 402.5,143.4 406.5,151.1 401.8,158.4 		"/>
	</g>
	<g class="st0">
		<polygon class="st9" points="393.2,94.5 389.3,86.8 393.9,79.6 402.5,80 406.5,87.7 401.8,94.9 		"/>
	</g>
	<g class="st0">
		<polygon class="st9" points="393.2,78.6 389.3,70.9 393.9,63.7 402.5,64.1 406.5,71.8 401.8,79.1 		"/>
	</g>
	<g class="st0">
		<polygon class="st9" points="393.2,62.8 389.3,55.1 393.9,47.8 402.5,48.3 406.5,55.9 401.8,63.2 		"/>
	</g>
	<g class="st0">
		<polygon class="st9" points="393.2,46.9 389.3,39.2 393.9,32 402.5,32.4 406.5,40.1 401.8,47.3 		"/>
	</g>
	<g class="st0">
		<polygon class="st9" points="393.2,31 389.3,23.4 393.9,16.1 402.5,16.5 406.5,24.2 401.8,31.5 		"/>
	</g>
	<g class="st0">
		<polygon class="st9" points="393.2,15.2 389.3,7.5 393.9,0.3 402.5,0.7 406.5,8.4 401.8,15.6 		"/>
	</g>
	<g class="st0">
		<polygon class="st9" points="379.5,245.2 375.5,237.5 380.2,230.2 388.8,230.7 392.8,238.3 388.1,245.6 		"/>
	</g>
	<g class="st0">
		<polygon class="st9" points="375.6,207.2 379,199.3 387.5,198.2 392.7,205.1 389.4,213.1 380.8,214.1 		"/>
	</g>
	<g class="st0">
		<polygon class="st9" points="379.5,197.6 375.5,189.9 380.2,182.7 388.8,183.1 392.8,190.8 388.1,198 		"/>
	</g>
	<g class="st0">
		<polygon class="st9" points="379.5,181.7 375.5,174 380.2,166.8 388.8,167.2 392.8,174.9 388.1,182.1 		"/>
	</g>
	<g class="st0">
		<polygon class="st9" points="379.5,165.9 375.5,158.2 380.2,150.9 388.8,151.4 392.8,159 388.1,166.3 		"/>
	</g>
	<g class="st0">
		<polygon class="st9" points="379.5,150 375.5,142.3 380.2,135.1 388.8,135.5 392.8,143.2 388.1,150.4 		"/>
	</g>
	<g class="st0">
		<polygon class="st9" points="379.5,134.1 375.5,126.5 380.2,119.2 388.8,119.6 392.8,127.3 388.1,134.6 		"/>
	</g>
	<g class="st0">
		<polygon class="st9" points="379.5,118.3 375.5,110.6 380.2,103.3 388.8,103.8 392.8,111.5 388.1,118.7 		"/>
	</g>
	<g class="st0">
		<polygon class="st9" points="379.5,102.4 375.5,94.7 380.2,87.5 388.8,87.9 392.8,95.6 388.1,102.8 		"/>
	</g>
	<g class="st0">
		<polygon class="st9" points="379.5,86.6 375.5,78.9 380.2,71.6 388.8,72.1 392.8,79.7 388.1,87 		"/>
	</g>
	<g class="st0">
		<polygon class="st9" points="379.5,70.7 375.5,63 380.2,55.8 388.8,56.2 392.8,63.9 388.1,71.1 		"/>
	</g>
	<g class="st0">
		<polygon class="st9" points="379.5,54.8 375.5,47.2 380.2,39.9 388.8,40.3 392.8,48 388.1,55.3 		"/>
	</g>
	<g class="st0">
		<polygon class="st9" points="379.5,39 375.5,31.3 380.2,24 388.8,24.5 392.8,32.2 388.1,39.4 		"/>
	</g>
	<g class="st0">
		<polygon class="st9" points="379.5,23.1 375.5,15.4 380.2,8.2 388.8,8.6 392.8,16.3 388.1,23.5 		"/>
	</g>
	<g class="st0">
		<polygon class="st9" points="365.8,205.5 361.8,197.8 366.5,190.6 375.1,191 379,198.7 374.4,205.9 		"/>
	</g>
	<g class="st0">
		<polygon class="st9" points="365.8,189.6 361.8,182 366.5,174.7 375.1,175.2 379,182.8 374.4,190.1 		"/>
	</g>
	<g class="st0">
		<polygon class="st9" points="365.8,173.8 361.8,166.1 366.5,158.9 375.1,159.3 379,167 374.4,174.2 		"/>
	</g>
	<g class="st0">
		<polygon class="st9" points="365.8,157.9 361.8,150.2 366.5,143 375.1,143.4 379,151.1 374.4,158.4 		"/>
	</g>
	<g class="st0">
		<polygon class="st9" points="365.8,142.1 361.8,134.4 366.5,127.2 375.1,127.6 379,135.2 374.4,142.5 		"/>
	</g>
	<g class="st0">
		<polygon class="st9" points="365.8,126.2 361.8,118.5 366.5,111.3 375.1,111.7 379,119.4 374.4,126.6 		"/>
	</g>
	<g class="st0">
		<polygon class="st9" points="365.8,110.3 361.8,102.7 366.5,95.4 375.1,95.8 379,103.5 374.4,110.8 		"/>
	</g>
	<g class="st0">
		<polygon class="st9" points="365.8,94.5 361.8,86.8 366.5,79.6 375.1,80 379,87.7 374.4,94.9 		"/>
	</g>
	<g class="st0">
		<polygon class="st9" points="365.8,78.6 361.8,70.9 366.5,63.7 375.1,64.1 379,71.8 374.4,79.1 		"/>
	</g>
	<g class="st0">
		<polygon class="st9" points="365.8,62.8 361.8,55.1 366.5,47.8 375.1,48.3 379,55.9 374.4,63.2 		"/>
	</g>
	<g class="st0">
		<polygon class="st9" points="365.8,46.9 361.8,39.2 366.5,32 375.1,32.4 379,40.1 374.4,47.3 		"/>
	</g>
	<g class="st0">
		<polygon class="st9" points="365.8,31 361.8,23.4 366.5,16.1 375.1,16.5 379,24.2 374.4,31.5 		"/>
	</g>
	<g class="st0">
		<polygon class="st9" points="352,197.6 348.1,189.9 352.8,182.7 361.4,183.1 365.3,190.8 360.6,198 		"/>
	</g>
	<g class="st0">
		<polygon class="st9" points="352,181.7 348.1,174 352.8,166.8 361.4,167.2 365.3,174.9 360.6,182.1 		"/>
	</g>
	<g class="st0">
		<polygon class="st9" points="352,165.9 348.1,158.2 352.8,150.9 361.4,151.4 365.3,159 360.6,166.3 		"/>
	</g>
	<g class="st0">
		<polygon class="st9" points="352,150 348.1,142.3 352.8,135.1 361.4,135.5 365.3,143.2 360.6,150.4 		"/>
	</g>
	<g class="st0">
		<polygon class="st9" points="352,134.1 348.1,126.5 352.8,119.2 361.4,119.6 365.3,127.3 360.6,134.6 		"/>
	</g>
	<g class="st0">
		<polygon class="st9" points="352,118.3 348.1,110.6 352.8,103.3 361.4,103.8 365.3,111.5 360.6,118.7 		"/>
	</g>
	<g class="st0">
		<polygon class="st9" points="352,102.4 348.1,94.7 352.8,87.5 361.4,87.9 365.3,95.6 360.6,102.8 		"/>
	</g>
	<g class="st0">
		<polygon class="st9" points="352,86.6 348.1,78.9 352.8,71.6 361.4,72.1 365.3,79.7 360.6,87 		"/>
	</g>
	<g class="st0">
		<polygon class="st9" points="352,70.7 348.1,63 352.8,55.8 361.4,56.2 365.3,63.9 360.6,71.1 		"/>
	</g>
	<g class="st0">
		<polygon class="st9" points="352,54.8 348.1,47.2 352.8,39.9 361.4,40.3 365.3,48 360.6,55.3 		"/>
	</g>
	<g class="st0">
		<polygon class="st9" points="338.3,173.8 334.4,166.1 339.1,158.9 347.7,159.3 351.6,167 346.9,174.2 		"/>
	</g>
	<g class="st0">
		<polygon class="st9" points="338.3,157.9 334.4,150.2 339.1,143 347.7,143.4 351.6,151.1 346.9,158.4 		"/>
	</g>
	<g class="st0">
		<polygon class="st9" points="338.3,142.1 334.4,134.4 339.1,127.2 347.7,127.6 351.6,135.2 346.9,142.5 		"/>
	</g>
	<g class="st0">
		<polygon class="st9" points="338.3,126.2 334.4,118.5 339.1,111.3 347.7,111.7 351.6,119.4 346.9,126.6 		"/>
	</g>
	<g class="st0">
		<polygon class="st9" points="338.3,110.3 334.4,102.7 339.1,95.4 347.7,95.8 351.6,103.5 346.9,110.8 		"/>
	</g>
	<g class="st0">
		<polygon class="st9" points="338.3,94.5 334.4,86.8 339.1,79.6 347.7,80 351.6,87.7 346.9,94.9 		"/>
	</g>
	<g class="st0">
		<polygon class="st9" points="338.3,62.8 334.4,55.1 339.1,47.8 347.7,48.3 351.6,55.9 346.9,63.2 		"/>
	</g>
	<g class="st0">
		<polygon class="st9" points="324.6,197.6 320.7,189.9 325.3,182.7 334,183.1 337.9,190.8 333.2,198 		"/>
	</g>
	<g class="st0">
		<polygon class="st9" points="324.6,181.7 320.7,174 325.3,166.8 334,167.2 337.9,174.9 333.2,182.1 		"/>
	</g>
	<g class="st0">
		<polygon class="st9" points="324.6,165.9 320.7,158.2 325.3,150.9 334,151.4 337.9,159 333.2,166.3 		"/>
	</g>
	<g class="st0">
		<polygon class="st9" points="324.6,150 320.7,142.3 325.3,135.1 334,135.5 337.9,143.2 333.2,150.4 		"/>
	</g>
	<g class="st0">
		<polygon class="st9" points="324.6,134.1 320.7,126.5 325.3,119.2 334,119.6 337.9,127.3 333.2,134.6 		"/>
	</g>
	<g class="st0">
		<polygon class="st9" points="324.6,118.3 320.7,110.6 325.3,103.3 334,103.8 337.9,111.5 333.2,118.7 		"/>
	</g>
	<g class="st0">
		<polygon class="st9" points="324.6,102.4 320.7,94.7 325.3,87.5 334,87.9 337.9,95.6 333.2,102.8 		"/>
	</g>
	<g class="st0">
		<polygon class="st9" points="324.6,86.6 320.7,78.9 325.3,71.6 334,72.1 337.9,79.7 333.2,87 		"/>
	</g>
	<g class="st0">
		<polygon class="st9" points="310.9,205.5 306.9,197.8 311.6,190.6 320.2,191 324.2,198.7 319.5,205.9 		"/>
	</g>
	<g class="st0">
		<polygon class="st9" points="310.9,189.6 306.9,182 311.6,174.7 320.2,175.2 324.2,182.8 319.5,190.1 		"/>
	</g>
	<g class="st0">
		<polygon class="st9" points="310.9,173.8 306.9,166.1 311.6,158.9 320.2,159.3 324.2,167 319.5,174.2 		"/>
	</g>
	<g class="st0">
		<polygon class="st9" points="310.9,157.9 306.9,150.2 311.6,143 320.2,143.4 324.2,151.1 319.5,158.4 		"/>
	</g>
	<g class="st0">
		<polygon class="st9" points="310.9,142.1 306.9,134.4 311.6,127.2 320.2,127.6 324.2,135.2 319.5,142.5 		"/>
	</g>
	<g class="st0">
		<polygon class="st9" points="310.9,126.2 306.9,118.5 311.6,111.3 320.2,111.7 324.2,119.4 319.5,126.6 		"/>
	</g>
	<g class="st0">
		<polygon class="st9" points="297.2,118.3 293.2,110.6 297.9,103.3 306.5,103.8 310.5,111.5 305.8,118.7 		"/>
	</g>
	<g class="st0">
		<polygon class="st9" points="406.9,165.9 403,158.2 407.7,150.9 416.3,151.4 420.2,159 415.5,166.3 		"/>
	</g>
	<g class="st0">
		<polygon class="st9" points="406.9,7.2 403,-0.4 407.7,-7.7 416.3,-7.2 420.2,0.4 415.5,7.7 		"/>
	</g>
	<g class="st0">
		<polygon class="st9" points="393.2,126.2 389.3,118.5 393.9,111.3 402.5,111.7 406.5,119.4 401.8,126.6 		"/>
	</g>
	<g class="st0">
		<polygon class="st9" points="393.2,110.3 389.3,102.7 393.9,95.4 402.5,95.8 406.5,103.5 401.8,110.8 		"/>
	</g>
	<g class="st0">
		<polygon class="st9" points="379.5,7.2 375.5,-0.4 380.2,-7.7 388.8,-7.2 392.8,0.4 388.1,7.7 		"/>
	</g>
	<g class="st0">
		<polygon class="st9" points="338.3,78.6 334.4,70.9 339.1,63.7 347.7,64.1 351.6,71.8 346.9,79.1 		"/>
	</g>
	<g class="st0">
		<polygon class="st9" points="338.3,46.9 334.4,39.2 339.1,32 347.7,32.4 351.6,40.1 346.9,47.3 		"/>
	</g>
	<g class="st0">
		<polygon class="st9" points="324.6,70.7 320.7,63 325.3,55.8 334,56.2 337.9,63.9 333.2,71.1 		"/>
	</g>
	<g class="st0">
		<polygon class="st9" points="310.9,110.3 306.9,102.7 311.6,95.4 320.2,95.8 324.2,103.5 319.5,110.8 		"/>
	</g>
	<g class="st0">
		<polygon class="st9" points="310.9,94.5 306.9,86.8 311.6,79.6 320.2,80 324.2,87.7 319.5,94.9 		"/>
	</g>
	<g class="st0">
		<polygon class="st9" points="310.9,78.6 306.9,70.9 311.6,63.7 320.2,64.1 324.2,71.8 319.5,79.1 		"/>
	</g>
	<g class="st0">
		<polygon class="st9" points="461.8,276.9 457.9,269.2 462.5,262 471.1,262.4 475.1,270.1 470.4,277.3 		"/>
	</g>
	<g class="st0">
		<polygon class="st9" points="406.9,292.8 403,285.1 407.7,277.8 416.3,278.2 420.2,285.9 415.5,293.2 		"/>
	</g>
	<g class="st0">
		<polygon class="st9" points="393.2,284.8 389.3,277.1 393.9,269.9 402.5,270.3 406.5,278 401.8,285.2 		"/>
	</g>
	<g class="st0">
		<polygon class="st9" points="379.5,276.9 375.5,269.2 380.2,262 388.8,262.4 392.8,270.1 388.1,277.3 		"/>
	</g>
	<g class="st0">
		<polygon class="st9" points="338.3,300.7 334.4,293 339.1,285.8 347.7,286.2 351.6,293.9 346.9,301.1 		"/>
	</g>
	<g class="st0">
		<polygon class="st9" points="352,39 348.1,31.3 352.8,24 361.4,24.5 365.3,32.2 360.6,39.4 		"/>
	</g>
	<g class="st0">
		<polygon class="st9" points="406.9,150 403,142.3 407.7,135.1 416.3,135.5 420.2,143.2 415.5,150.4 		"/>
	</g>
	<g class="st0">
		<polygon class="st9" points="393.2,142.1 389.3,134.4 393.9,127.2 402.5,127.6 406.5,135.2 401.8,142.5 		"/>
	</g>
	<g class="st0">
		<polygon class="st9" points="324.6,54.8 320.7,47.2 325.3,39.9 334,40.3 337.9,48 333.2,55.3 		"/>
	</g>
</g>
<g id="NT">
	<g class="st0">
		<polygon class="st10" points="297.2,134.1 293.2,126.5 297.9,119.2 306.5,119.6 310.5,127.3 305.8,134.6 		"/>
	</g>
	<g class="st0">
		<polygon class="st10" points="297.2,102.4 293.2,94.7 297.9,87.5 306.5,87.9 310.5,95.6 305.8,102.8 		"/>
	</g>
	<g class="st0">
		<polygon class="st10" points="297.2,86.6 293.2,78.9 297.9,71.6 306.5,72.1 310.5,79.7 305.8,87 		"/>
	</g>
	<g class="st0">
		<polygon class="st10" points="283.4,173.8 279.5,166.1 284.2,158.9 292.8,159.3 296.7,167 292,174.2 		"/>
	</g>
	<g class="st0">
		<polygon class="st10" points="283.4,142.1 279.5,134.4 284.2,127.2 292.8,127.6 296.7,135.2 292,142.5 		"/>
	</g>
	<g class="st0">
		<polygon class="st10" points="283.4,126.2 279.5,118.5 284.2,111.3 292.8,111.7 296.7,119.4 292,126.6 		"/>
	</g>
	<g class="st0">
		<polygon class="st10" points="283.4,110.3 279.5,102.7 284.2,95.4 292.8,95.8 296.7,103.5 292,110.8 		"/>
	</g>
	<g class="st0">
		<polygon class="st10" points="283.4,94.5 279.5,86.8 284.2,79.6 292.8,80 296.7,87.7 292,94.9 		"/>
	</g>
	<g class="st0">
		<polygon class="st10" points="269.7,181.7 265.8,174 270.5,166.8 279.1,167.2 283,174.9 278.3,182.1 		"/>
	</g>
	<g class="st0">
		<polygon class="st10" points="269.7,165.9 265.8,158.2 270.5,150.9 279.1,151.4 283,159 278.3,166.3 		"/>
	</g>
	<g class="st0">
		<polygon class="st10" points="269.7,150 265.8,142.3 270.5,135.1 279.1,135.5 283,143.2 278.3,150.4 		"/>
	</g>
	<g class="st0">
		<polygon class="st10" points="269.7,134.1 265.8,126.5 270.5,119.2 279.1,119.6 283,127.3 278.3,134.6 		"/>
	</g>
	<g class="st0">
		<polygon class="st10" points="269.7,118.3 265.8,110.6 270.5,103.3 279.1,103.8 283,111.5 278.3,118.7 		"/>
	</g>
	<g class="st0">
		<polygon class="st10" points="269.7,102.4 265.8,94.7 270.5,87.5 279.1,87.9 283,95.6 278.3,102.8 		"/>
	</g>
	<g class="st0">
		<polygon class="st10" points="269.7,86.6 265.8,78.9 270.5,71.6 279.1,72.1 283,79.7 278.3,87 		"/>
	</g>
	<g class="st0">
		<polygon class="st10" points="256,173.8 252.1,166.1 256.7,158.9 265.4,159.3 269.3,167 264.6,174.2 		"/>
	</g>
	<g class="st0">
		<polygon class="st10" points="256,157.9 252.1,150.2 256.7,143 265.4,143.4 269.3,151.1 264.6,158.4 		"/>
	</g>
	<g class="st0">
		<polygon class="st10" points="256,142.1 252.1,134.4 256.7,127.2 265.4,127.6 269.3,135.2 264.6,142.5 		"/>
	</g>
	<g class="st0">
		<polygon class="st10" points="256,126.2 252.1,118.5 256.7,111.3 265.4,111.7 269.3,119.4 264.6,126.6 		"/>
	</g>
	<g class="st0">
		<polygon class="st10" points="256,110.3 252.1,102.7 256.7,95.4 265.4,95.8 269.3,103.5 264.6,110.8 		"/>
	</g>
	<g class="st0">
		<polygon class="st10" points="256,94.5 252.1,86.8 256.7,79.6 265.4,80 269.3,87.7 264.6,94.9 		"/>
	</g>
	<g class="st0">
		<polygon class="st10" points="242.3,181.7 238.3,174 243,166.8 251.6,167.2 255.6,174.9 250.9,182.1 		"/>
	</g>
	<g class="st0">
		<polygon class="st10" points="242.3,165.9 238.3,158.2 243,150.9 251.6,151.4 255.6,159 250.9,166.3 		"/>
	</g>
	<g class="st0">
		<polygon class="st10" points="242.3,150 238.3,142.3 243,135.1 251.6,135.5 255.6,143.2 250.9,150.4 		"/>
	</g>
	<g class="st0">
		<polygon class="st10" points="242.3,134.1 238.3,126.5 243,119.2 251.6,119.6 255.6,127.3 250.9,134.6 		"/>
	</g>
	<g class="st0">
		<polygon class="st10" points="228.6,173.8 224.6,166.1 229.3,158.9 237.9,159.3 241.9,167 237.2,174.2 		"/>
	</g>
	<g class="st0">
		<polygon class="st10" points="228.6,157.9 224.6,150.2 229.3,143 237.9,143.4 241.9,151.1 237.2,158.4 		"/>
	</g>
	<g class="st0">
		<polygon class="st10" points="228.6,142.1 224.6,134.4 229.3,127.2 237.9,127.6 241.9,135.2 237.2,142.5 		"/>
	</g>
	<g class="st0">
		<polygon class="st10" points="214.8,165.9 210.9,158.2 215.6,150.9 224.2,151.4 228.1,159 223.4,166.3 		"/>
	</g>
	<g class="st0">
		<polygon class="st10" points="214.8,150 210.9,142.3 215.6,135.1 224.2,135.5 228.1,143.2 223.4,150.4 		"/>
	</g>
	<g class="st0">
		<polygon class="st10" points="201.1,157.9 197.2,150.2 201.9,143 210.5,143.4 214.4,151.1 209.7,158.4 		"/>
	</g>
	<g class="st0">
		<polygon class="st10" points="187.4,150 183.5,142.3 188.1,135.1 196.8,135.5 200.7,143.2 196,150.4 		"/>
	</g>
	<g class="st0">
		<polygon class="st10" points="283.4,300.7 279.5,293 284.2,285.8 292.8,286.2 296.7,293.9 292,301.1 		"/>
	</g>
	<g class="st0">
		<polygon class="st10" points="283.4,284.8 279.5,277.1 284.2,269.9 292.8,270.3 296.7,278 292,285.2 		"/>
	</g>
	<g class="st0">
		<polygon class="st10" points="283.4,269 279.5,261.3 284.2,254 292.8,254.5 296.7,262.1 292,269.4 		"/>
	</g>
	<g class="st0">
		<polygon class="st10" points="283.4,253.1 279.5,245.4 284.2,238.2 292.8,238.6 296.7,246.3 292,253.5 		"/>
	</g>
	<g class="st0">
		<polygon class="st10" points="269.7,292.8 265.8,285.1 270.5,277.8 279.1,278.2 283,285.9 278.3,293.2 		"/>
	</g>
	<g class="st0">
		<polygon class="st10" points="269.7,276.9 265.8,269.2 270.5,262 279.1,262.4 283,270.1 278.3,277.3 		"/>
	</g>
	<g class="st0">
		<polygon class="st10" points="269.7,261 265.8,253.4 270.5,246.1 279.1,246.5 283,254.2 278.3,261.5 		"/>
	</g>
	<g class="st0">
		<polygon class="st10" points="269.7,245.2 265.8,237.5 270.5,230.2 279.1,230.7 283,238.3 278.3,245.6 		"/>
	</g>
	<g class="st0">
		<polygon class="st10" points="256,300.7 252.1,293 256.7,285.8 265.4,286.2 269.3,293.9 264.6,301.1 		"/>
	</g>
	<g class="st0">
		<polygon class="st10" points="256,284.8 252.1,277.1 256.7,269.9 265.4,270.3 269.3,278 264.6,285.2 		"/>
	</g>
	<g class="st0">
		<polygon class="st10" points="256,269 252.1,261.3 256.7,254 265.4,254.5 269.3,262.1 264.6,269.4 		"/>
	</g>
	<g class="st0">
		<polygon class="st10" points="256,253.1 252.1,245.4 256.7,238.2 265.4,238.6 269.3,246.3 264.6,253.5 		"/>
	</g>
	<g class="st0">
		<polygon class="st10" points="256,237.2 252.1,229.6 256.7,222.3 265.4,222.7 269.3,230.4 264.6,237.7 		"/>
	</g>
	<g class="st0">
		<polygon class="st10" points="242.3,292.8 238.3,285.1 243,277.8 251.6,278.2 255.6,285.9 250.9,293.2 		"/>
	</g>
	<g class="st0">
		<polygon class="st10" points="242.3,276.9 238.3,269.2 243,262 251.6,262.4 255.6,270.1 250.9,277.3 		"/>
	</g>
	<g class="st0">
		<polygon class="st10" points="242.3,261 238.3,253.4 243,246.1 251.6,246.5 255.6,254.2 250.9,261.5 		"/>
	</g>
	<g class="st0">
		<polygon class="st10" points="242.3,245.2 238.3,237.5 243,230.2 251.6,230.7 255.6,238.3 250.9,245.6 		"/>
	</g>
	<g class="st0">
		<polygon class="st10" points="242.3,229.3 238.3,221.6 243,214.4 251.6,214.8 255.6,222.5 250.9,229.7 		"/>
	</g>
	<g class="st0">
		<polygon class="st10" points="228.6,284.8 224.6,277.1 229.3,269.9 237.9,270.3 241.9,278 237.2,285.2 		"/>
	</g>
	<g class="st0">
		<polygon class="st10" points="228.6,269 224.6,261.3 229.3,254 237.9,254.5 241.9,262.1 237.2,269.4 		"/>
	</g>
	<g class="st0">
		<polygon class="st10" points="228.6,253.1 224.6,245.4 229.3,238.2 237.9,238.6 241.9,246.3 237.2,253.5 		"/>
	</g>
	<g class="st0">
		<polygon class="st10" points="228.6,237.2 224.6,229.6 229.3,222.3 237.9,222.7 241.9,230.4 237.2,237.7 		"/>
	</g>
	<g class="st0">
		<polygon class="st10" points="228.6,221.4 224.6,213.7 229.3,206.4 237.9,206.9 241.9,214.6 237.2,221.8 		"/>
	</g>
	<g class="st0">
		<polygon class="st10" points="228.6,205.5 224.6,197.8 229.3,190.6 237.9,191 241.9,198.7 237.2,205.9 		"/>
	</g>
	<g class="st0">
		<polygon class="st10" points="228.6,189.6 224.6,182 229.3,174.7 237.9,175.2 241.9,182.8 237.2,190.1 		"/>
	</g>
	<g class="st0">
		<polygon class="st10" points="214.8,292.8 210.9,285.1 215.6,277.8 224.2,278.2 228.1,285.9 223.4,293.2 		"/>
	</g>
	<g class="st0">
		<polygon class="st10" points="214.8,276.9 210.9,269.2 215.6,262 224.2,262.4 228.1,270.1 223.4,277.3 		"/>
	</g>
	<g class="st0">
		<polygon class="st10" points="214.8,261 210.9,253.4 215.6,246.1 224.2,246.5 228.1,254.2 223.4,261.5 		"/>
	</g>
	<g class="st0">
		<polygon class="st10" points="214.8,245.2 210.9,237.5 215.6,230.2 224.2,230.7 228.1,238.3 223.4,245.6 		"/>
	</g>
	<g class="st0">
		<polygon class="st10" points="214.8,229.3 210.9,221.6 215.6,214.4 224.2,214.8 228.1,222.5 223.4,229.7 		"/>
	</g>
	<g class="st0">
		<polygon class="st10" points="214.8,213.4 210.9,205.8 215.6,198.5 224.2,198.9 228.1,206.6 223.4,213.9 		"/>
	</g>
	<g class="st0">
		<polygon class="st10" points="214.8,197.6 210.9,189.9 215.6,182.7 224.2,183.1 228.1,190.8 223.4,198 		"/>
	</g>
	<g class="st0">
		<polygon class="st10" points="214.8,181.7 210.9,174 215.6,166.8 224.2,167.2 228.1,174.9 223.4,182.1 		"/>
	</g>
	<g class="st0">
		<polygon class="st10" points="201.1,284.8 197.2,277.1 201.9,269.9 210.5,270.3 214.4,278 209.7,285.2 		"/>
	</g>
	<g class="st0">
		<polygon class="st10" points="201.1,269 197.2,261.3 201.9,254 210.5,254.5 214.4,262.1 209.7,269.4 		"/>
	</g>
	<g class="st0">
		<polygon class="st10" points="201.1,253.1 197.2,245.4 201.9,238.2 210.5,238.6 214.4,246.3 209.7,253.5 		"/>
	</g>
	<g class="st0">
		<polygon class="st10" points="201.1,237.2 197.2,229.6 201.9,222.3 210.5,222.7 214.4,230.4 209.7,237.7 		"/>
	</g>
	<g class="st0">
		<polygon class="st10" points="201.1,221.4 197.2,213.7 201.9,206.4 210.5,206.9 214.4,214.6 209.7,221.8 		"/>
	</g>
	<g class="st0">
		<polygon class="st10" points="201.1,205.5 197.2,197.8 201.9,190.6 210.5,191 214.4,198.7 209.7,205.9 		"/>
	</g>
	<g class="st0">
		<polygon class="st10" points="201.1,189.6 197.2,182 201.9,174.7 210.5,175.2 214.4,182.8 209.7,190.1 		"/>
	</g>
	<g class="st0">
		<polygon class="st10" points="201.1,173.8 197.2,166.1 201.9,158.9 210.5,159.3 214.4,167 209.7,174.2 		"/>
	</g>
	<g class="st0">
		<polygon class="st10" points="187.4,276.9 183.5,269.2 188.1,262 196.8,262.4 200.7,270.1 196,277.3 		"/>
	</g>
	<g class="st0">
		<polygon class="st10" points="187.4,261 183.5,253.4 188.1,246.1 196.8,246.5 200.7,254.2 196,261.5 		"/>
	</g>
	<g class="st0">
		<polygon class="st10" points="187.4,245.2 183.5,237.5 188.1,230.2 196.8,230.7 200.7,238.3 196,245.6 		"/>
	</g>
	<g class="st0">
		<polygon class="st10" points="187.4,229.3 183.5,221.6 188.1,214.4 196.8,214.8 200.7,222.5 196,229.7 		"/>
	</g>
	<g class="st0">
		<polygon class="st10" points="187.4,213.4 183.5,205.8 188.1,198.5 196.8,198.9 200.7,206.6 196,213.9 		"/>
	</g>
	<g class="st0">
		<polygon class="st10" points="187.4,197.6 183.5,189.9 188.1,182.7 196.8,183.1 200.7,190.8 196,198 		"/>
	</g>
	<g class="st0">
		<polygon class="st10" points="187.4,181.7 183.5,174 188.1,166.8 196.8,167.2 200.7,174.9 196,182.1 		"/>
	</g>
	<g class="st0">
		<polygon class="st10" points="187.4,165.9 183.5,158.2 188.1,150.9 196.8,151.4 200.7,159 196,166.3 		"/>
	</g>
	<g class="st0">
		<polygon class="st10" points="173.7,269 169.7,261.3 174.4,254 183,254.5 187,262.1 182.3,269.4 		"/>
	</g>
	<g class="st0">
		<polygon class="st10" points="173.7,253.1 169.7,245.4 174.4,238.2 183,238.6 187,246.3 182.3,253.5 		"/>
	</g>
	<g class="st0">
		<polygon class="st10" points="173.7,237.2 169.7,229.6 174.4,222.3 183,222.7 187,230.4 182.3,237.7 		"/>
	</g>
	<g class="st0">
		<polygon class="st10" points="173.7,221.4 169.7,213.7 174.4,206.4 183,206.9 187,214.6 182.3,221.8 		"/>
	</g>
	<g class="st0">
		<polygon class="st10" points="173.7,205.5 169.7,197.8 174.4,190.6 183,191 187,198.7 182.3,205.9 		"/>
	</g>
	<g class="st0">
		<polygon class="st10" points="173.7,189.6 169.7,182 174.4,174.7 183,175.2 187,182.8 182.3,190.1 		"/>
	</g>
	<g class="st0">
		<polygon class="st10" points="173.7,173.8 169.7,166.1 174.4,158.9 183,159.3 187,167 182.3,174.2 		"/>
	</g>
	<g class="st0">
		<polygon class="st10" points="173.7,157.9 169.7,150.2 174.4,143 183,143.4 187,151.1 182.3,158.4 		"/>
	</g>
	<g class="st0">
		<polygon class="st10" points="283.4,78.6 279.5,70.9 284.2,63.7 292.8,64.1 296.7,71.8 292,79.1 		"/>
	</g>
	<g class="st0">
		<polygon class="st10" points="242.3,118.3 238.3,110.6 243,103.3 251.6,103.8 255.6,111.5 250.9,118.7 		"/>
	</g>
</g>
</svg>
